<svg version="1.1" id="Layer_1" xmlns="http://www.w3.org/2000/svg" xmlns:xlink="http://www.w3.org/1999/xlink" x="0px" y="0px" viewBox="0 0 500 500" style="width: 188px;" xml:space="preserve" data-imageid="money-transfer-3-93" imageName="Money Transfer 3" class="illustrations_image">
<style type="text/css">
	.st0_money-transfer-3-93{fill:#C4C4C4;}
	.st1_money-transfer-3-93{opacity:0.32;fill:url(#SVGID_1_);enable-background:new    ;}
	.st2_money-transfer-3-93{fill:url(#SVGID_00000091723698389817108740000004283747021656422543_);}
	.st3_money-transfer-3-93{fill:url(#SVGID_00000150820296589448041890000006289170548516292267_);}
	.st4_money-transfer-3-93{fill:url(#SVGID_00000103970954403468087810000007854255046373498240_);}
	.st5_money-transfer-3-93{fill:#FFFFFF;}
	.st6_money-transfer-3-93{fill:#F7931E;}
	.st7_money-transfer-3-93{fill:#FFD008;}
	.st8_money-transfer-3-93{fill:#68E1FD;}
	.st9_money-transfer-3-93{fill:#F4F4F4;}
	.st10_money-transfer-3-93{fill:#2E3192;}
	.st11_money-transfer-3-93{fill:#754C24;}
	.st12_money-transfer-3-93{fill:#007F68;}
</style>
<g id="background_money-transfer-3-93">
	<path class="st0_money-transfer-3-93" d="M244.4,431.3L24.1,301.1c-7-3.9-13-10.4-6.2-14.6L239,159c3.3-2.1,8.4-3.4,11.7-1.4L482,291.8&#10;&#9;&#9;c7,4.1,8.3,15.5,1.2,19.5L273.5,431.1C264.5,436.3,253.5,436.3,244.4,431.3z"/>
	
		<linearGradient id="SVGID_1_-money-transfer-3-93" gradientUnits="userSpaceOnUse" x1="250.318" y1="112.3685" x2="276.588" y2="149.3985" gradientTransform="matrix(1 0 0 -1 0 502)">
		<stop offset="0" style="stop-color:#C4C4C4"/>
		<stop offset="1" style="stop-color:#4D4D4D"/>
	</linearGradient>
	<path class="st1_money-transfer-3-93" d="M293,362.3l-8.9-6.1l-54.2,29.4l11,6.5C258.5,382.5,275.7,372.3,293,362.3z"/>
	
		<linearGradient id="SVGID_00000183936175910278218170000007767049964994969231_-money-transfer-3-93" gradientUnits="userSpaceOnUse" x1="471.6807" y1="278.0935" x2="402.8207" y2="165.5035" gradientTransform="matrix(1 0 0 -1 0 502)">
		<stop offset="0" style="stop-color:#4D4D4D"/>
		<stop offset="0.24" style="stop-color:#535353;stop-opacity:0.95"/>
		<stop offset="0.46" style="stop-color:#646464;stop-opacity:0.81"/>
		<stop offset="0.68" style="stop-color:#818181;stop-opacity:0.57"/>
		<stop offset="0.89" style="stop-color:#A9A9A9;stop-opacity:0.23"/>
		<stop offset="1" style="stop-color:#C4C4C4;stop-opacity:0"/>
	</linearGradient>
	<path style="fill:url(#SVGID_00000183936175910278218170000007767049964994969231_);" d="M460.5,310.6l-33.3-23.1L373,316.9&#10;&#9;&#9;l38.3,22.7C411.3,339.5,442.6,320.8,460.5,310.6z"/>
	
		<linearGradient id="SVGID_00000140013274139758590050000015892139165810036896_-money-transfer-3-93" gradientUnits="userSpaceOnUse" x1="277.424" y1="296.8674" x2="160.7939" y2="116.9674" gradientTransform="matrix(1 0 0 -1 0 502)">
		<stop offset="0" style="stop-color:#4D4D4D"/>
		<stop offset="0.24" style="stop-color:#535353;stop-opacity:0.95"/>
		<stop offset="0.46" style="stop-color:#646464;stop-opacity:0.81"/>
		<stop offset="0.68" style="stop-color:#818181;stop-opacity:0.57"/>
		<stop offset="0.89" style="stop-color:#A9A9A9;stop-opacity:0.23"/>
		<stop offset="1" style="stop-color:#C4C4C4;stop-opacity:0"/>
	</linearGradient>
	<polyline style="fill:url(#SVGID_00000140013274139758590050000015892139165810036896_);" points="160.9,316.3 110.6,349.2 &#10;&#9;&#9;193.2,399.2 248.3,363.2 &#9;"/>
	
		<linearGradient id="SVGID_00000164514222319776509030000015594790245258263433_-money-transfer-3-93" gradientUnits="userSpaceOnUse" x1="167.2236" y1="368.3177" x2="50.5936" y2="188.4077" gradientTransform="matrix(1 0 0 -1 0 502)">
		<stop offset="0" style="stop-color:#4D4D4D"/>
		<stop offset="0.24" style="stop-color:#535353;stop-opacity:0.95"/>
		<stop offset="0.46" style="stop-color:#646464;stop-opacity:0.81"/>
		<stop offset="0.68" style="stop-color:#818181;stop-opacity:0.57"/>
		<stop offset="0.89" style="stop-color:#A9A9A9;stop-opacity:0.23"/>
		<stop offset="1" style="stop-color:#C4C4C4;stop-opacity:0"/>
	</linearGradient>
	<path style="fill:url(#SVGID_00000164514222319776509030000015594790245258263433_);" d="M60.2,314.3c11.1-7.2,22.2-14.3,33.3-21.4&#10;&#9;&#9;l-21.1-15.4l-38.3,16C41.5,301.8,50.6,308.3,60.2,314.3z"/>
	<path class="st5_money-transfer-3-93" d="M174.1,247.9c0,0,0.4,10.3-7.5,10.3c0,0,6.9,1.3,6.9,7.8c0,0,0.8-7.3,8.2-7.3&#10;&#9;&#9;C181.6,258.6,174.3,259.6,174.1,247.9z"/>
</g>
<g id="coins_money-transfer-3-93">
	<ellipse class="st6_money-transfer-3-93" cx="439.8" cy="300.6" rx="26.8" ry="15.7"/>
	<polygon class="st6_money-transfer-3-93" points="413,300.6 413,296 415.9,299.6 &#9;"/>
	<polygon class="st6_money-transfer-3-93" points="466.6,296 466.6,300.6 463.2,300.6 465.7,296.9 &#9;"/>
	<ellipse class="st7_money-transfer-3-93" cx="439.8" cy="296" rx="26.8" ry="15.7"/>
	<path class="st6_money-transfer-3-93" d="M453.4,293.9c0.2,0.4,0.3,0.8,0.2,1.2l-0.1,0.4h-4.9c0-0.1,0.1-0.3,0.1-0.4c0-0.3-0.1-0.6-0.3-0.9&#10;&#9;&#9;c-0.3-0.5-0.7-0.9-1.2-1.1c-0.7-0.4-1.5-0.6-2.3-0.6c-0.7-0.1-1.5,0.1-2.2,0.3c-0.7,0.3-1,0.7-0.8,1.1c0.2,0.6,0.6,1.1,1,1.6&#10;&#9;&#9;c0.5,0.5,1,1.1,1.5,1.7c0.5,0.5,0.6,1.3,0.3,1.9c-0.5,0.9-1.4,1.6-2.4,1.9c-1.6,0.7-3.4,1.1-5.2,1.1c-1.9,0.1-3.8-0.2-5.7-0.8&#10;&#9;&#9;l-2.8,1.2l-3.3-1.6l2.7-1.2c-0.5-0.3-0.9-0.7-1.3-1.2c-0.3-0.3-0.5-0.7-0.6-1.1c-0.1-0.3-0.1-0.6-0.2-0.9c0-0.2,0-0.4,0-0.6&#10;&#9;&#9;l0.1-0.2h4.9c-0.1,0.2-0.1,0.3-0.1,0.5c0,0.4,0.2,0.8,0.4,1.1c0.4,0.6,1,1.1,1.6,1.4c0.9,0.4,1.9,0.7,2.8,0.7&#10;&#9;&#9;c0.9,0.1,1.8-0.1,2.6-0.4c0.7-0.3,0.9-0.7,0.8-1.1c-0.2-0.6-0.6-1.1-1.1-1.5c-0.5-0.5-1-1.1-1.5-1.7c-0.4-0.5-0.5-1.3-0.2-1.9&#10;&#9;&#9;c0.6-0.9,1.5-1.6,2.5-1.9c1.6-0.7,3.3-1,5-1c1.8-0.1,3.6,0.2,5.3,0.8l2.8-1.2l3.1,1.7l-2.8,1.2&#10;&#9;&#9;C452.7,292.8,453.2,293.3,453.4,293.9z"/>
	<path class="st6_money-transfer-3-93" d="M439.9,310.6c-13.3,0-23.8-6.3-23.8-14.4s10.4-14.4,23.8-14.4s23.8,6.3,23.8,14.4S453.2,310.6,439.9,310.6z&#10;&#9;&#9; M439.9,284.2c-11.8,0-21.3,5.4-21.3,12s9.5,12,21.3,12s21.3-5.4,21.3-12S451.6,284.2,439.9,284.2z"/>
	<ellipse class="st6_money-transfer-3-93" cx="439.8" cy="294.8" rx="26.8" ry="15.7"/>
	<polygon class="st6_money-transfer-3-93" points="413,294.8 413,290.3 415.9,293.9 &#9;"/>
	<polygon class="st6_money-transfer-3-93" points="466.6,290.3 466.6,294.8 463.2,294.8 465.7,291.2 &#9;"/>
	<ellipse class="st7_money-transfer-3-93" cx="439.8" cy="290.3" rx="26.8" ry="15.7"/>
	<path class="st6_money-transfer-3-93" d="M453.4,288.2c0.2,0.4,0.3,0.8,0.2,1.2l-0.1,0.4h-4.9c0-0.1,0.1-0.3,0.1-0.4c0-0.3-0.1-0.6-0.3-0.9&#10;&#9;&#9;c-0.3-0.5-0.7-0.8-1.2-1.1c-0.7-0.4-1.5-0.6-2.3-0.6c-0.7,0-1.5,0.1-2.2,0.3c-0.7,0.3-1,0.7-0.8,1.1c0.2,0.6,0.6,1.1,1,1.5&#10;&#9;&#9;c0.5,0.5,1,1.1,1.5,1.7c0.5,0.5,0.6,1.3,0.3,1.9c-0.5,0.9-1.4,1.5-2.4,1.9c-1.6,0.7-3.4,1.1-5.2,1.1c-1.9,0.1-3.8-0.2-5.7-0.8&#10;&#9;&#9;l-2.8,1.2l-3.3-1.6l2.7-1.2c-0.5-0.3-0.9-0.7-1.3-1.2c-0.3-0.3-0.5-0.7-0.6-1.1c-0.1-0.3-0.1-0.6-0.2-0.9c0-0.2,0-0.4,0-0.6&#10;&#9;&#9;l0.1-0.2h4.9c-0.1,0.2-0.1,0.3-0.1,0.5c0,0.4,0.2,0.8,0.4,1.1c0.4,0.6,1,1.1,1.7,1.4c0.9,0.4,1.9,0.7,2.8,0.7&#10;&#9;&#9;c0.9,0.1,1.8-0.1,2.6-0.4c0.7-0.3,0.9-0.7,0.8-1.1c-0.2-0.6-0.6-1.1-1.1-1.5c-0.5-0.5-1-1.1-1.5-1.7c-0.4-0.5-0.5-1.3-0.2-1.9&#10;&#9;&#9;c0.6-0.9,1.5-1.6,2.5-1.9c1.6-0.7,3.3-1,5-1c1.8-0.1,3.6,0.2,5.3,0.8l2.8-1.2l3.1,1.7l-2.8,1.2&#10;&#9;&#9;C452.8,287.1,453.2,287.6,453.4,288.2z"/>
	<path class="st6_money-transfer-3-93" d="M439.9,304.9c-13.3,0-23.8-6.3-23.8-14.4s10.4-14.4,23.8-14.4s23.8,6.3,23.8,14.4S453.2,304.9,439.9,304.9z&#10;&#9;&#9; M439.9,278.5c-11.8,0-21.3,5.4-21.3,12s9.5,12,21.3,12s21.3-5.4,21.3-12S451.6,278.5,439.9,278.5L439.9,278.5z"/>
	<ellipse class="st6_money-transfer-3-93" cx="440.2" cy="289.4" rx="26.8" ry="15.7"/>
	<polygon class="st6_money-transfer-3-93" points="413.4,289.4 413.4,284.9 416.3,288.5 &#9;"/>
	<polygon class="st6_money-transfer-3-93" points="467.1,284.9 467.1,289.4 463.6,289.4 466.1,285.8 &#9;"/>
	<ellipse class="st7_money-transfer-3-93" cx="440.2" cy="284.9" rx="26.8" ry="15.7"/>
	<path class="st6_money-transfer-3-93" d="M453.8,282.8c0.2,0.4,0.3,0.8,0.2,1.2l-0.1,0.4H449c0-0.1,0.1-0.3,0.1-0.4c0-0.3-0.1-0.6-0.3-0.9&#10;&#9;&#9;c-0.3-0.5-0.7-0.8-1.2-1.1c-0.7-0.4-1.5-0.6-2.3-0.6c-0.7,0-1.5,0.1-2.2,0.3c-0.7,0.3-1,0.7-0.8,1.1c0.2,0.6,0.6,1.1,1,1.5&#10;&#9;&#9;c0.5,0.5,1,1.1,1.5,1.7c0.5,0.5,0.6,1.3,0.3,1.9c-0.5,0.9-1.4,1.5-2.4,1.9c-1.6,0.7-3.4,1.1-5.2,1.1c-1.9,0.1-3.8-0.2-5.7-0.8&#10;&#9;&#9;l-2.8,1.2l-3.3-1.6l2.7-1.2c-0.5-0.3-0.9-0.7-1.3-1.2c-0.3-0.3-0.5-0.7-0.6-1.1c-0.1-0.3-0.1-0.6-0.2-0.9c0-0.2,0-0.4,0-0.6&#10;&#9;&#9;l0.1-0.2h4.9c-0.1,0.2-0.1,0.3-0.1,0.5c0,0.4,0.2,0.8,0.4,1.1c0.4,0.6,1,1.1,1.6,1.4c0.9,0.4,1.9,0.7,2.8,0.7&#10;&#9;&#9;c0.9,0.1,1.8-0.1,2.6-0.4c0.7-0.3,0.9-0.7,0.8-1.1c-0.2-0.6-0.6-1.1-1.1-1.5c-0.5-0.5-1-1.1-1.5-1.7c-0.4-0.5-0.5-1.3-0.2-1.9&#10;&#9;&#9;c0.6-0.9,1.5-1.6,2.5-1.9c1.6-0.7,3.3-1,5-1c1.8-0.1,3.6,0.2,5.3,0.8l2.8-1.2l3.1,1.7l-2.8,1.2&#10;&#9;&#9;C453.2,281.6,453.6,282.1,453.8,282.8z"/>
	<path class="st6_money-transfer-3-93" d="M440.3,299.5c-13.3,0-23.8-6.3-23.8-14.4s10.4-14.4,23.8-14.4S464,277,464,285S453.6,299.5,440.3,299.5z&#10;&#9;&#9; M440.3,273.1c-11.8,0-21.3,5.4-21.3,12s9.5,12,21.3,12s21.3-5.4,21.3-12S452,273.1,440.3,273.1L440.3,273.1z"/>
	<ellipse class="st6_money-transfer-3-93" cx="446.4" cy="280.6" rx="26.8" ry="15.7"/>
	<polygon class="st6_money-transfer-3-93" points="419.5,280.6 419.5,276.1 422.5,279.7 &#9;"/>
	<polygon class="st6_money-transfer-3-93" points="473.2,276.1 473.2,280.6 469.8,280.6 472.3,277 &#9;"/>
	<ellipse class="st7_money-transfer-3-93" cx="446.4" cy="276.1" rx="26.8" ry="15.7"/>
	<path class="st6_money-transfer-3-93" d="M460,274c0.2,0.4,0.3,0.8,0.2,1.2l-0.1,0.4h-4.9c0-0.1,0.1-0.3,0.1-0.4c0-0.3-0.1-0.6-0.3-0.9&#10;&#9;&#9;c-0.3-0.5-0.7-0.9-1.2-1.1c-0.7-0.4-1.5-0.6-2.3-0.6c-0.7-0.1-1.5,0.1-2.2,0.3c-0.7,0.3-1,0.7-0.8,1.2c0.2,0.6,0.6,1.1,1,1.5&#10;&#9;&#9;c0.5,0.5,1,1.1,1.5,1.7c0.5,0.5,0.6,1.3,0.3,1.9c-0.5,0.9-1.4,1.5-2.4,1.9c-1.6,0.7-3.4,1.1-5.2,1.1c-1.9,0.1-3.8-0.2-5.7-0.8&#10;&#9;&#9;l-2.8,1.2L432,281l2.7-1.2c-0.5-0.3-0.9-0.7-1.3-1.2c-0.3-0.3-0.5-0.7-0.6-1.1c-0.1-0.3-0.1-0.6-0.2-0.9c0-0.2,0-0.4,0-0.6l0.1-0.2&#10;&#9;&#9;h4.9c0,0.2-0.1,0.3-0.1,0.5c0,0.4,0.2,0.8,0.4,1.1c0.4,0.6,1,1.1,1.6,1.4c0.9,0.4,1.9,0.7,2.8,0.7c0.9,0.1,1.8-0.1,2.6-0.4&#10;&#9;&#9;c0.7-0.3,0.9-0.7,0.8-1.1c-0.2-0.6-0.6-1.1-1.1-1.5c-0.5-0.5-1-1.1-1.5-1.7c-0.4-0.5-0.5-1.3-0.2-1.9c0.6-0.9,1.5-1.6,2.5-1.9&#10;&#9;&#9;c1.6-0.6,3.3-1,5-1c1.8-0.1,3.6,0.2,5.3,0.8l2.8-1.2l3.1,1.7l-2.8,1.2C459.3,272.8,459.7,273.4,460,274z"/>
	<path class="st6_money-transfer-3-93" d="M446.4,290.7c-13.3,0-23.8-6.3-23.8-14.4s10.4-14.4,23.8-14.4s23.7,6.3,23.7,14.4S459.7,290.7,446.4,290.7z&#10;&#9;&#9; M446.4,264.3c-11.8,0-21.3,5.4-21.3,12s9.5,12,21.3,12s21.3-5.4,21.3-12S458.1,264.3,446.4,264.3z"/>
	<path class="st5_money-transfer-3-93" d="M422.4,264.6c0,0,0.4,10.3-7.5,10.3c0,0,6.9,1.3,6.9,7.8c0,0,0.8-7.3,8.2-7.3&#10;&#9;&#9;C429.9,275.4,422.6,276.4,422.4,264.6z"/>
</g>
<g id="phone_2_money-transfer-3-93">
	<polyline class="st8_money-transfer-3-93 targetColor" points="350.3,122.5 358.5,126.1 350.6,129.6 348.7,125.5 &#9;" style="fill: rgb(26, 143, 227);"/>
	<path class="st8_money-transfer-3-93 targetColor" d="M275.8,362.7l67.9-39.6c5.6-3.2,9-9.2,9-15.6l2.2-179.8c0-4.7-7.3-7.1-11.4-4.7l-70.3,41.5&#10;&#9;&#9;c-3.5,2.1-5.7,5.9-5.7,10v183.5c0,3,2.5,5.5,5.5,5.5C274,363.4,275,363.2,275.8,362.7z" style="fill: rgb(26, 143, 227);"/>
	<polyline class="st8_money-transfer-3-93 targetColor" points="270.4,362.7 279.2,367.4 278.2,361.2 272,360.1 &#9;" style="fill: rgb(26, 143, 227);"/>
	<path class="st9_money-transfer-3-93" d="M284.3,367.2l67.9-39.6c5.6-3.2,9-9.2,9-15.6V130.5c0-2.7-2.2-4.8-4.8-4.8c-0.9,0-1.7,0.2-2.4,0.7L281.8,169&#10;&#9;&#9;c-3.5,2.1-5.7,5.9-5.7,10v183.4c0,3,2.5,5.5,5.5,5.5C282.5,367.9,283.5,367.7,284.3,367.2z"/>
	<polygon class="st5_money-transfer-3-93" points="280.4,190.1 357.8,145.7 357.8,304.5 280.4,349.2 &#9;"/>
	
		<ellipse transform="matrix(0.2323 -0.9727 0.9727 0.2323 -73.8491 573.3716)" class="st0_money-transfer-3-93" cx="326.3" cy="333.5" rx="4.8" ry="3.6"/>
	<path class="st0_money-transfer-3-93" d="M329.1,153.3L329.1,153.3c0,0.6-0.3,1.2-0.9,1.5l-15,8.6c-0.8,0.5-1.9,0.2-2.4-0.6c-0.1-0.3-0.2-0.6-0.2-0.9&#10;&#9;&#9;v-0.4c0-0.6,0.3-1.2,0.9-1.5l15-8.2c0.8-0.5,1.9-0.2,2.4,0.6C329.1,152.7,329.2,153,329.1,153.3z"/>
	<ellipse transform="matrix(0.3471 -0.9378 0.9378 0.3471 79.8708 412.2775)" class="st0_money-transfer-3-93" cx="336" cy="148.8" rx="2.3" ry="1.7"/>
</g>
<g id="phone_1_money-transfer-3-93">
	<polyline class="st8_money-transfer-3-93 targetColor" points="168.4,123 160.2,126.6 168.1,130.1 170,126 &#9;" style="fill: rgb(26, 143, 227);"/>
	<path class="st8_money-transfer-3-93 targetColor" d="M242.9,363.2L175,323.6c-5.6-3.2-9-9.2-9-15.6l-2.2-179.8c0-4.7,7.3-7.1,11.4-4.7l70.2,41.5&#10;&#9;&#9;c3.5,2.1,5.7,5.9,5.7,10v183.4c0,3-2.5,5.5-5.5,5.5C244.7,363.9,243.7,363.7,242.9,363.2z" style="fill: rgb(26, 143, 227);"/>
	<polyline class="st8_money-transfer-3-93 targetColor" points="248.3,363.2 239.4,367.9 240.5,361.8 246.6,360.6 &#9;" style="fill: rgb(26, 143, 227);"/>
	<path class="st9_money-transfer-3-93" d="M234.4,367.7l-67.9-39.6c-5.6-3.2-9-9.2-9-15.6V131c0-2.7,2.2-4.8,4.8-4.8c0.9,0,1.7,0.2,2.5,0.7l72.2,42.7&#10;&#9;&#9;c3.5,2.1,5.7,5.9,5.7,10V363c0,3-2.5,5.5-5.6,5.4C236.1,368.4,235.2,368.2,234.4,367.7z"/>
	<polygon class="st5_money-transfer-3-93" points="238.3,190.6 160.9,146.2 160.9,305 238.3,349.7 &#9;"/>
	
		<ellipse transform="matrix(0.9727 -0.2323 0.2323 0.9727 -72.2975 53.8326)" class="st0_money-transfer-3-93" cx="192.5" cy="333.9" rx="3.6" ry="4.8"/>
	<path class="st0_money-transfer-3-93" d="M189.6,153.9L189.6,153.9c0,0.6,0.3,1.2,0.9,1.5l15,8.6c0.8,0.5,1.9,0.2,2.4-0.6c0.1-0.3,0.2-0.6,0.2-0.9v-0.4&#10;&#9;&#9;c0-0.6-0.3-1.2-0.9-1.5l-14.9-8.2c-0.8-0.5-1.9-0.2-2.4,0.6C189.6,153.2,189.5,153.5,189.6,153.9z"/>
	
		<ellipse transform="matrix(0.9378 -0.3471 0.3471 0.9378 -40.4504 72.6905)" class="st0_money-transfer-3-93" cx="182.7" cy="149.3" rx="1.7" ry="2.3"/>
</g>
<g id="arrow_money-transfer-3-93">
	<ellipse transform="matrix(0.9371 -0.3489 0.3489 0.9371 -59.9615 82.7787)" class="st0_money-transfer-3-93" cx="199.8" cy="207.8" rx="8" ry="11"/>
	<path class="st10_money-transfer-3-93" d="M198.8,206.3c-1,0-1.8-0.8-1.8-1.8v-3.1c0-1,0.8-1.8,1.8-1.8c1,0,1.8,0.8,1.8,1.8v3.1&#10;&#9;&#9;C200.6,205.5,199.8,206.3,198.8,206.3z"/>
	<path class="st10_money-transfer-3-93" d="M320,196.3c-1,0-1.8-0.8-1.8-1.8v-6.2c0-1,0.8-1.8,1.8-1.8c1,0,1.8,0.8,1.8,1.8v6.2&#10;&#9;&#9;C321.8,195.4,321,196.3,320,196.3z M198.8,193.3c-1,0-1.8-0.8-1.8-1.8v-6.2c0-1,0.8-1.8,1.8-1.8c1,0,1.8,0.8,1.8,1.8v6.2&#10;&#9;&#9;C200.6,192.5,199.8,193.3,198.8,193.3C198.8,193.3,198.8,193.3,198.8,193.3L198.8,193.3z M320,180.2c-1,0-1.8-0.8-1.8-1.8v-6.2&#10;&#9;&#9;c0-1,0.8-1.8,1.8-1.8c1,0,1.8,0.8,1.8,1.8c0,0,0,0,0,0v6.2C321.8,179.3,321,180.2,320,180.2z M198.8,177.2c-1,0-1.8-0.8-1.8-1.8&#10;&#9;&#9;v-6.2c0-1,0.8-1.8,1.8-1.8c1,0,1.8,0.8,1.8,1.8v6.2C200.6,176.4,199.8,177.3,198.8,177.2C198.8,177.3,198.8,177.3,198.8,177.2&#10;&#9;&#9;L198.8,177.2z M320,164.1L320,164.1c-1,0-1.8-0.8-1.8-1.9c0,0,0,0,0,0c0-0.9,0-1.8,0-2.7c0-1.2,0-2.3,0-3.5c0-1,0.8-1.8,1.8-1.8&#10;&#9;&#9;l0,0c1,0,1.8,0.8,1.8,1.9c0,1.2,0,2.3,0,3.5c0,0.9,0,1.8,0,2.7C321.8,163.2,321,164,320,164.1z M198.9,161.2L198.9,161.2&#10;&#9;&#9;c-1.1,0-1.9-0.9-1.8-1.9c0,0,0,0,0,0c0.1-2.3,0.3-4.4,0.5-6.3c0.2-1,1.1-1.7,2.1-1.5c1,0.2,1.6,1,1.5,2c-0.2,1.9-0.4,3.8-0.5,6&#10;&#9;&#9;C200.7,160.4,199.9,161.2,198.9,161.2L198.9,161.2z M319.4,148c-0.9,0-1.7-0.6-1.8-1.5c-0.3-1.9-0.9-3.8-1.6-5.6&#10;&#9;&#9;c-0.3-1,0.2-2,1.1-2.3c0.9-0.3,1.9,0.1,2.3,1c0.8,2,1.4,4.1,1.8,6.3c0.2,1-0.5,2-1.5,2.2c0,0,0,0,0,0&#10;&#9;&#9;C319.6,148,319.5,148,319.4,148z M201.5,145.3c-0.2,0-0.4,0-0.6-0.1c-1-0.3-1.5-1.4-1.1-2.3c0.7-2,1.5-4,2.5-5.9&#10;&#9;&#9;c0.5-0.9,1.6-1.2,2.5-0.7c0.8,0.5,1.2,1.5,0.8,2.4c-0.9,1.8-1.7,3.6-2.3,5.4C203,144.8,202.3,145.3,201.5,145.3L201.5,145.3z&#10;&#9;&#9; M312.8,133.5c-0.6,0-1.1-0.3-1.5-0.8c-1.2-1.6-2.5-3.1-3.8-4.6c-0.7-0.7-0.7-1.9,0-2.6c0.7-0.7,1.9-0.7,2.6,0c0,0,0,0,0.1,0.1&#10;&#9;&#9;c1.5,1.6,2.8,3.2,4.1,4.9c0.6,0.8,0.4,2-0.4,2.6C313.6,133.4,313.2,133.5,312.8,133.5z M209.3,131.4c-0.4,0-0.8-0.1-1.1-0.4&#10;&#9;&#9;c-0.8-0.6-0.9-1.8-0.3-2.6c0,0,0,0,0,0c1.3-1.7,2.7-3.3,4.2-4.8c0.7-0.8,1.8-0.9,2.6-0.2s0.9,1.8,0.2,2.6c-0.1,0.1-0.1,0.1-0.2,0.2&#10;&#9;&#9;c-1.4,1.4-2.7,3-4,4.5C210.4,131.1,209.9,131.4,209.3,131.4L209.3,131.4z M301.5,122.1c-0.4,0-0.8-0.1-1.1-0.4&#10;&#9;&#9;c-1.3-1-2.6-1.9-4-2.9l-0.9-0.6c-0.9-0.6-1.1-1.7-0.5-2.5c0.6-0.9,1.7-1.1,2.5-0.6l1,0.6c1.5,1,2.9,2,4.2,3c0.8,0.6,1,1.8,0.3,2.6&#10;&#9;&#9;C302.6,121.9,302.1,122.1,301.5,122.1L301.5,122.1z M220.8,120.1c-1,0-1.8-0.8-1.8-1.8c0-0.6,0.3-1.1,0.7-1.5&#10;&#9;&#9;c1.7-1.3,3.4-2.5,5.2-3.6c0.9-0.5,2-0.3,2.5,0.6c0.5,0.9,0.3,2-0.6,2.5c-1.7,1-3.4,2.2-5,3.4C221.6,120,221.2,120.1,220.8,120.1&#10;&#9;&#9;L220.8,120.1z M287.7,113.8c-0.3,0-0.5-0.1-0.8-0.2c-1.8-0.8-3.7-1.6-5.6-2.2c-0.9-0.4-1.4-1.4-1.1-2.4c0.4-0.9,1.3-1.4,2.3-1.1&#10;&#9;&#9;c2,0.7,4,1.5,5.9,2.4c0.9,0.4,1.3,1.5,0.9,2.4C289.1,113.4,288.4,113.8,287.7,113.8z M234.7,112.1c-1,0-1.8-0.8-1.8-1.8&#10;&#9;&#9;c0-0.7,0.4-1.4,1.1-1.7c2-0.8,4-1.5,6-2.1c1-0.4,2,0.1,2.4,1.1c0.4,1-0.1,2-1.1,2.4c-0.1,0-0.2,0.1-0.3,0.1c-1.9,0.6-3.8,1.2-5.7,2&#10;&#9;&#9;C235.2,112.1,234.9,112.2,234.7,112.1L234.7,112.1z M272.4,108.9c-0.1,0-0.2,0-0.4,0c-2-0.4-4-0.7-6-0.9c-1-0.1-1.7-1-1.6-2&#10;&#9;&#9;c0.1-1,1-1.7,2-1.6c0,0,0,0,0,0c2.1,0.2,4.2,0.6,6.3,1c1,0.2,1.6,1.2,1.4,2.2C274,108.3,273.3,109,272.4,108.9L272.4,108.9z&#10;&#9;&#9; M250.2,108.1c-1,0-1.9-0.8-1.9-1.8c0-1,0.7-1.8,1.7-1.9c2.1-0.3,4.2-0.4,6.3-0.5c1,0,1.9,0.7,1.9,1.8c0,1-0.7,1.9-1.8,1.9&#10;&#9;&#9;c-2,0.1-4.1,0.2-6,0.5L250.2,108.1z"/>
	<path class="st10_money-transfer-3-93" d="M320,209.3c-1,0-1.8-0.8-1.8-1.8v-3.1c0-1,0.8-1.8,1.8-1.8c1,0,1.8,0.8,1.8,1.8v3.1&#10;&#9;&#9;C321.8,208.5,321,209.3,320,209.3L320,209.3z"/>
	<polygon class="st10_money-transfer-3-93" points="308.6,207.3 331.5,194.2 320.9,220.7 &#9;"/>
</g>
<g id="plant_money-transfer-3-93">
	<path class="st11_money-transfer-3-93" d="M101.5,238.3c-0.1-0.5-0.3-1-0.7-1.4c-0.6-0.7-1.2-1.3-2-1.8c-10.4-7-24.7-9-35.7-2.1&#10;&#9;&#9;c-2.5,1.6-6.2,5.1-4.8,8.5c0.9,1.9,3.5,3.1,5.3,3.9c5.9,2.6,12.5,3.8,18.8,4.9c2.3,0.4,4.7,0.8,7,1c3.3,0.3,6.5-1.1,8.5-3.7&#10;&#9;&#9;C99.6,245.6,102.2,241.4,101.5,238.3z"/>
	<path class="st8_money-transfer-3-93 targetColor" d="M58.1,240c0,0,9.4,8.6,25.8,7.3s17.6-9,17.6-9s-4.2,54.2-6.5,55.1s-10.6,5-14.6,5.3s-16.8-4.8-17.1-6.2&#10;&#9;&#9;S58.1,240,58.1,240z" style="fill: rgb(26, 143, 227);"/>
	<path class="st12_money-transfer-3-93" d="M61.1,161c-0.5-1-2-0.1-1.5,0.9c11.2,22.6,13.4,48,15.4,72.6c0.1,1.1,1.9,1.1,1.8,0&#10;&#9;&#9;C74.7,209.5,72.4,183.9,61.1,161z"/>
	<path class="st12_money-transfer-3-93" d="M59.6,161.2c0,0,3.1,11.7-0.1,17.6s-5.9,7-2,14.3s14.2,8.2,14.9,13.8S67.4,171.2,59.6,161.2z"/>
	<path class="st12_money-transfer-3-93" d="M95.4,182.4C86.8,200.4,82,220,81.2,240c-0.1,1.4,2.1,1.4,2.2,0c0.8-19.6,5.5-38.8,13.9-56.5&#10;&#9;&#9;C97.9,182.2,96,181.1,95.4,182.4z"/>
	<path class="st12_money-transfer-3-93" d="M96.9,188.1c0-1.2-0.3-3.5-0.1-5.6c-0.4,0.3-0.8,0.5-1.2,0.8c-4.3,10.3-10.6,34.6-12.5,42&#10;&#9;&#9;c2.6-5.5,13.2-6.3,16.3-14.3c1.4-3.4,1.4-7.1,0.2-10.6C98,196.5,97.1,192.3,96.9,188.1z"/>
</g>
<g id="coin_2_money-transfer-3-93">
	
		<ellipse transform="matrix(0.9964 -8.506913e-02 8.506913e-02 0.9964 -21.4947 17.397)" class="st6_money-transfer-3-93" cx="193.4" cy="260.9" rx="28.8" ry="31.5"/>
	
		<ellipse transform="matrix(0.9964 -8.506913e-02 8.506913e-02 0.9964 -21.3535 17.8153)" class="st7_money-transfer-3-93" cx="198.4" cy="259.5" rx="28.8" ry="31.5"/>
	<path class="st6_money-transfer-3-93" d="M198.7,287.7c-6.3,0-12.3-2.5-16.9-6.8c-5.4-5-8.6-11.9-9.2-19.2c-1.3-15.5,9.1-29.1,23.3-30.3&#10;&#9;&#9;c7-0.6,13.8,1.9,18.9,6.7c11,10.5,12.4,27.5,3.4,39.7c-4.2,5.6-10.5,9.2-17.5,9.8C200.1,287.6,199.4,287.7,198.7,287.7z M198,232.5&#10;&#9;&#9;c-0.6,0-1.3,0-1.9,0.1c-13.5,1.1-23.5,14.1-22.2,29c0.5,7,3.7,13.6,8.8,18.4c9.2,8.8,23.8,8.5,32.6-0.7c0.7-0.7,1.4-1.5,2-2.3&#10;&#9;&#9;c4.2-5.6,6.2-12.6,5.6-19.6l0,0c-0.6-7-3.7-13.6-8.8-18.4C209.7,234.9,204,232.6,198,232.5L198,232.5z"/>
	<path class="st6_money-transfer-3-93" d="M210.2,256.9c-2.9-2.5-6.9-2.3-10.4-1.4c-1.3-2.8-2.7-5.6-4.1-8.3c0.8-0.2,1.6-0.4,2.4-0.4&#10;&#9;&#9;c2.5-0.2,1.9-4-0.6-3.8c-1.2,0.1-2.4,0.4-3.6,0.9c-0.8-1.5-1.5-3.1-2.3-4.6c-1.1-2.2-4.7-0.6-3.6,1.6c0.8,1.6,1.6,3.2,2.5,4.9&#10;&#9;&#9;c-4.6,3.3-7.7,8.9-4.2,14c2.6,3.8,6.7,2.5,10.3,1.1l1.1-0.4c1.3,2.7,2.5,5.3,3.7,8c-1.7,0.4-3.4,0.6-5.1,0.7&#10;&#9;&#9;c-2.5,0.1-1.9,4,0.6,3.8c2.1-0.1,4.1-0.5,6.1-1c0.4,0.9,0.8,1.8,1.2,2.8c1,2.3,4.6,0.7,3.6-1.6c-0.4-0.9-0.8-1.7-1.2-2.6&#10;&#9;&#9;c1.9-0.9,3.6-2.2,4.8-3.9C213.8,263.5,213.2,259.2,210.2,256.9z M193.6,257.8c-3.8,0-5.2-2.4-3.8-5.7c0.6-1.3,1.5-2.4,2.6-3.3&#10;&#9;&#9;c1.3,2.7,2.6,5.3,3.9,8C195.4,257.4,194.5,257.7,193.6,257.8L193.6,257.8z M208.5,264.3c-0.8,1.2-1.9,2.2-3.2,2.7&#10;&#9;&#9;c-1.2-2.7-2.5-5.3-3.7-8c0.3-0.1,0.7-0.2,1-0.2C205.6,258.4,210.9,259.9,208.5,264.3L208.5,264.3z"/>
</g>
<g id="coin_1_money-transfer-3-93">
	
		<ellipse transform="matrix(8.506908e-02 -0.9964 0.9964 8.506908e-02 37.9354 568.9582)" class="st6_money-transfer-3-93" cx="328.8" cy="263.8" rx="31.5" ry="28.8"/>
	
		<ellipse transform="matrix(8.506908e-02 -0.9964 0.9964 8.506908e-02 34.8267 562.6699)" class="st7_money-transfer-3-93" cx="323.8" cy="262.4" rx="31.5" ry="28.8"/>
	<path class="st6_money-transfer-3-93" d="M323.4,290.5c-0.7,0-1.4,0-2-0.1c-7-0.6-13.3-4.2-17.5-9.8c-4.4-5.9-6.5-13.2-5.8-20.5l0,0&#10;&#9;&#9;c0.6-7.3,3.8-14.2,9.2-19.2c5.1-4.8,11.9-7.3,18.9-6.7c14.2,1.2,24.6,14.8,23.3,30.3c-0.6,7.3-3.8,14.2-9.2,19.2&#10;&#9;&#9;C335.7,288.1,329.7,290.5,323.4,290.5z M324.1,235.4c-6,0-11.7,2.4-16,6.5c-5.1,4.8-8.3,11.4-8.8,18.4l0,0c-0.7,7,1.3,14,5.6,19.6&#10;&#9;&#9;c7.5,10.3,21.9,12.5,32.1,5.1c0.9-0.6,1.7-1.3,2.5-2.1c5.1-4.8,8.3-11.4,8.8-18.4c1.3-14.8-8.7-27.8-22.2-29&#10;&#9;&#9;C325.4,235.4,324.8,235.4,324.1,235.4L324.1,235.4z"/>
	<path class="st6_money-transfer-3-93" d="M333,272.1c-0.1-3.8-2.8-6.7-5.9-8.6c1.2-2.9,2.4-5.7,3.5-8.6c0.7,0.4,1.3,0.9,1.9,1.5c1.8,1.7,4.3-1.2,2.5-3&#10;&#9;&#9;c-0.9-0.8-1.9-1.5-3-2.1c0.6-1.6,1.3-3.2,1.9-4.8c0.9-2.3-2.6-3.9-3.5-1.6c-0.6,1.7-1.3,3.4-2,5.1c-5.5-1.3-11.8,0.2-13.3,6.2&#10;&#9;&#9;c-1.1,4.4,2.6,6.6,6,8.4l1,0.5c-1.1,2.7-2.3,5.4-3.5,8.1c-1.4-1-2.8-2.1-4-3.3c-1.8-1.8-4.2,1.2-2.5,3c1.5,1.5,3.1,2.8,4.9,3.9&#10;&#9;&#9;c-0.4,0.9-0.8,1.9-1.2,2.8c-1,2.3,2.5,3.9,3.5,1.6l1.1-2.6c1.9,0.8,4,1.2,6.1,1C330.4,279.3,333.3,276,333,272.1z M321.2,260.4&#10;&#9;&#9;c-2.5-2.8-1.7-5.5,1.7-6.6c1.3-0.4,2.7-0.5,4.1-0.3c-1.1,2.8-2.2,5.5-3.4,8.2C322.8,261.4,322,261,321.2,260.4L321.2,260.4z&#10;&#9;&#9; M326.3,275.8c-1.4,0.2-2.9,0-4.2-0.6c1.2-2.7,2.4-5.4,3.5-8.1c0.3,0.2,0.6,0.4,0.8,0.6C328.8,269.7,331.2,274.7,326.3,275.8&#10;&#9;&#9;L326.3,275.8z"/>
</g>
</svg>