<svg id="_0265_money_jar" xmlns="http://www.w3.org/2000/svg" xmlns:xlink="http://www.w3.org/1999/xlink" viewBox="0 0 500 500" data-imageid="money-jar-54" imageName="Money Jar" class="illustrations_image" style="width: 151px;"><defs><style>.cls-1_money-jar-54{fill:url(#linear-gradient);}.cls-1_money-jar-54,.cls-2_money-jar-54,.cls-3_money-jar-54,.cls-4_money-jar-54,.cls-5_money-jar-54,.cls-6_money-jar-54,.cls-7_money-jar-54,.cls-8_money-jar-54,.cls-9_money-jar-54,.cls-10_money-jar-54,.cls-11_money-jar-54,.cls-12_money-jar-54,.cls-13_money-jar-54,.cls-14_money-jar-54,.cls-15_money-jar-54,.cls-16_money-jar-54,.cls-17_money-jar-54,.cls-18_money-jar-54,.cls-19_money-jar-54,.cls-20_money-jar-54,.cls-21_money-jar-54,.cls-22_money-jar-54,.cls-23_money-jar-54,.cls-24_money-jar-54,.cls-25_money-jar-54,.cls-26_money-jar-54,.cls-27_money-jar-54,.cls-28_money-jar-54,.cls-29_money-jar-54,.cls-30_money-jar-54,.cls-31_money-jar-54,.cls-32_money-jar-54,.cls-33_money-jar-54,.cls-34_money-jar-54,.cls-35_money-jar-54,.cls-36_money-jar-54,.cls-37_money-jar-54,.cls-38_money-jar-54,.cls-39_money-jar-54,.cls-40_money-jar-54,.cls-41_money-jar-54,.cls-42_money-jar-54,.cls-43_money-jar-54,.cls-44_money-jar-54,.cls-45_money-jar-54,.cls-46_money-jar-54,.cls-47_money-jar-54,.cls-48_money-jar-54,.cls-49_money-jar-54,.cls-50_money-jar-54,.cls-51_money-jar-54,.cls-52_money-jar-54,.cls-53_money-jar-54,.cls-54_money-jar-54,.cls-55_money-jar-54{stroke-width:0px;}.cls-2_money-jar-54{fill:url(#linear-gradient-38-money-jar-54);}.cls-3_money-jar-54{fill:url(#linear-gradient-33-money-jar-54);}.cls-4_money-jar-54{fill:url(#linear-gradient-29-money-jar-54);}.cls-5_money-jar-54{fill:url(#linear-gradient-32-money-jar-54);}.cls-6_money-jar-54{fill:url(#linear-gradient-30-money-jar-54);}.cls-7_money-jar-54{fill:url(#linear-gradient-31-money-jar-54);}.cls-8_money-jar-54{fill:url(#linear-gradient-36-money-jar-54);}.cls-9_money-jar-54{fill:url(#linear-gradient-39-money-jar-54);}.cls-10_money-jar-54{fill:url(#linear-gradient-34-money-jar-54);}.cls-11_money-jar-54{fill:url(#linear-gradient-37-money-jar-54);}.cls-12_money-jar-54{fill:url(#linear-gradient-35-money-jar-54);}.cls-13_money-jar-54{fill:url(#linear-gradient-28-money-jar-54);}.cls-14_money-jar-54{fill:url(#linear-gradient-25-money-jar-54);}.cls-15_money-jar-54{fill:url(#linear-gradient-11-money-jar-54);}.cls-16_money-jar-54{fill:url(#linear-gradient-12-money-jar-54);}.cls-17_money-jar-54{fill:url(#linear-gradient-13-money-jar-54);}.cls-18_money-jar-54{fill:url(#linear-gradient-10-money-jar-54);}.cls-19_money-jar-54{fill:url(#linear-gradient-17-money-jar-54);}.cls-20_money-jar-54{fill:url(#linear-gradient-16-money-jar-54);}.cls-21_money-jar-54{fill:url(#linear-gradient-19-money-jar-54);}.cls-22_money-jar-54{fill:url(#linear-gradient-15-money-jar-54);}.cls-23_money-jar-54{fill:url(#linear-gradient-23-money-jar-54);}.cls-24_money-jar-54{fill:url(#linear-gradient-21-money-jar-54);}.cls-25_money-jar-54{fill:url(#linear-gradient-18-money-jar-54);}.cls-26_money-jar-54{fill:url(#linear-gradient-14-money-jar-54);}.cls-27_money-jar-54{fill:url(#linear-gradient-22-money-jar-54);}.cls-28_money-jar-54{fill:url(#linear-gradient-20-money-jar-54);}.cls-29_money-jar-54{fill:url(#linear-gradient-27-money-jar-54);}.cls-30_money-jar-54{fill:url(#linear-gradient-24-money-jar-54);}.cls-31_money-jar-54{fill:url(#linear-gradient-26-money-jar-54);}.cls-32_money-jar-54{fill:url(#linear-gradient-45-money-jar-54);}.cls-33_money-jar-54{fill:url(#linear-gradient-46-money-jar-54);}.cls-34_money-jar-54{fill:url(#linear-gradient-44-money-jar-54);}.cls-35_money-jar-54{fill:url(#linear-gradient-48-money-jar-54);}.cls-36_money-jar-54{fill:url(#linear-gradient-49-money-jar-54);}.cls-37_money-jar-54{fill:url(#linear-gradient-47-money-jar-54);}.cls-38_money-jar-54{fill:url(#linear-gradient-42-money-jar-54);}.cls-39_money-jar-54{fill:url(#linear-gradient-43-money-jar-54);}.cls-40_money-jar-54{fill:url(#linear-gradient-40-money-jar-54);}.cls-41_money-jar-54{fill:url(#linear-gradient-41-money-jar-54);}.cls-42_money-jar-54{fill:url(#linear-gradient-53-money-jar-54);}.cls-43_money-jar-54{fill:url(#linear-gradient-51-money-jar-54);}.cls-44_money-jar-54{fill:url(#linear-gradient-52-money-jar-54);}.cls-45_money-jar-54{fill:url(#linear-gradient-50-money-jar-54);}.cls-46_money-jar-54{fill:url(#linear-gradient-4-money-jar-54);}.cls-47_money-jar-54{fill:url(#linear-gradient-2-money-jar-54);}.cls-48_money-jar-54{fill:url(#linear-gradient-3-money-jar-54);}.cls-49_money-jar-54{fill:url(#linear-gradient-8-money-jar-54);}.cls-50_money-jar-54{fill:url(#linear-gradient-9-money-jar-54);}.cls-51_money-jar-54{fill:url(#linear-gradient-7-money-jar-54);}.cls-52_money-jar-54{fill:url(#linear-gradient-5-money-jar-54);}.cls-53_money-jar-54{fill:url(#linear-gradient-6-money-jar-54);}.cls-54_money-jar-54{isolation:isolate;opacity:.24;}.cls-54_money-jar-54,.cls-55_money-jar-54{fill:#68e1fd;}</style><linearGradient id="linear-gradient-money-jar-54" x1="-162.51" y1="3847.05" x2="-156.7" y2="4047.01" gradientTransform="translate(409 4277.02) scale(1 -1)" gradientUnits="userSpaceOnUse"><stop offset="0" stop-color="#231f20" stop-opacity="0"/><stop offset="1" stop-color="#231f20"/></linearGradient><linearGradient id="linear-gradient-2-money-jar-54" x1="264.13" y1="259.27" x2="236.11" y2="353.1" gradientTransform="matrix(1,0,0,1,0,0)" xlink:href="#linear-gradient-money-jar-54"/><linearGradient id="linear-gradient-3-money-jar-54" x1="235.2" y1="323.4" x2="253.02" y2="323.4" gradientTransform="matrix(1,0,0,1,0,0)" xlink:href="#linear-gradient-money-jar-54"/><linearGradient id="linear-gradient-4-money-jar-54" x1="228.2" y1="315.79" x2="207.57" y2="330.99" gradientTransform="matrix(1,0,0,1,0,0)" xlink:href="#linear-gradient-money-jar-54"/><linearGradient id="linear-gradient-5-money-jar-54" x1="194.96" y1="331.99" x2="214.55" y2="331.99" gradientTransform="matrix(1,0,0,1,0,0)" xlink:href="#linear-gradient-money-jar-54"/><linearGradient id="linear-gradient-6-money-jar-54" x1="303.98" y1="271.17" x2="275.96" y2="365" gradientTransform="matrix(1,0,0,1,0,0)" xlink:href="#linear-gradient-money-jar-54"/><linearGradient id="linear-gradient-7-money-jar-54" x1="277.29" y1="333.73" x2="291.55" y2="333.73" gradientTransform="matrix(1,0,0,1,0,0)" xlink:href="#linear-gradient-money-jar-54"/><linearGradient id="linear-gradient-8-money-jar-54" x1="-220.01" y1="4040.18" x2="-107.92" y2="4040.18" gradientTransform="translate(403 4259.51) scale(1 -1)" xlink:href="#linear-gradient-money-jar-54"/><linearGradient id="linear-gradient-9-money-jar-54" x1="-170.65" y1="4078.84" x2="-170.12" y2="4068.7" xlink:href="#linear-gradient-money-jar-54"/><linearGradient id="linear-gradient-10-money-jar-54" x1="202.68" y1="138.6" x2="267.18" y2="229.5" gradientTransform="matrix(1,0,0,1,0,0)" xlink:href="#linear-gradient-money-jar-54"/><linearGradient id="linear-gradient-11-money-jar-54" x1="202.21" y1="138.93" x2="266.72" y2="229.83" gradientTransform="matrix(1,0,0,1,0,0)" xlink:href="#linear-gradient-money-jar-54"/><linearGradient id="linear-gradient-12-money-jar-54" x1="199.5" y1="78.76" x2="232.08" y2="169.11" gradientTransform="matrix(1,0,0,1,0,0)" xlink:href="#linear-gradient-money-jar-54"/><linearGradient id="linear-gradient-13-money-jar-54" x1="198.73" y1="79.04" x2="231.31" y2="169.39" gradientTransform="matrix(1,0,0,1,0,0)" xlink:href="#linear-gradient-money-jar-54"/><linearGradient id="linear-gradient-14-money-jar-54" x1="156.19" y1="32.28" x2="203.11" y2="197.35" gradientTransform="matrix(1,0,0,1,0,0)" xlink:href="#linear-gradient-money-jar-54"/><linearGradient id="linear-gradient-15-money-jar-54" x1="155.34" y1="32.53" x2="202.25" y2="197.59" gradientTransform="matrix(1,0,0,1,0,0)" xlink:href="#linear-gradient-money-jar-54"/><linearGradient id="linear-gradient-16-money-jar-54" x1="282.39" y1="401.49" x2="273.6" y2="375.1" gradientTransform="translate(659.27 103.3) rotate(89.18)" xlink:href="#linear-gradient-money-jar-54"/><linearGradient id="linear-gradient-17-money-jar-54" x1="263.68" y1="385.58" x2="291.66" y2="385.58" gradientTransform="matrix(1,0,0,1,0,0)" xlink:href="#linear-gradient-money-jar-54"/><linearGradient id="linear-gradient-18-money-jar-54" x1="346.87" y1="390.03" x2="397.28" y2="390.03" gradientTransform="translate(756.74 12.42) rotate(89.18)" xlink:href="#linear-gradient-money-jar-54"/><linearGradient id="linear-gradient-19-money-jar-54" x1="358.53" y1="389.61" x2="386.54" y2="389.61" gradientTransform="matrix(1,0,0,1,0,0)" xlink:href="#linear-gradient-money-jar-54"/><linearGradient id="linear-gradient-20-money-jar-54" x1="350.67" y1="381.02" x2="401.08" y2="381.02" gradientTransform="translate(751.48 -.27) rotate(89.18)" xlink:href="#linear-gradient-money-jar-54"/><linearGradient id="linear-gradient-21-money-jar-54" x1="362.33" y1="380.6" x2="390.34" y2="380.6" gradientTransform="matrix(1,0,0,1,0,0)" xlink:href="#linear-gradient-money-jar-54"/><linearGradient id="linear-gradient-22-money-jar-54" x1="344.27" y1="372.83" x2="394.67" y2="372.83" gradientTransform="translate(736.97 -1.94) rotate(89.18)" xlink:href="#linear-gradient-money-jar-54"/><linearGradient id="linear-gradient-23-money-jar-54" x1="355.93" y1="372.4" x2="383.91" y2="372.4" gradientTransform="matrix(1,0,0,1,0,0)" xlink:href="#linear-gradient-money-jar-54"/><linearGradient id="linear-gradient-24-money-jar-54" x1="346.87" y1="364.82" x2="397.28" y2="364.82" gradientTransform="translate(731.54 -12.43) rotate(89.18)" xlink:href="#linear-gradient-money-jar-54"/><linearGradient id="linear-gradient-25-money-jar-54" x1="358.53" y1="364.41" x2="386.54" y2="364.41" gradientTransform="matrix(1,0,0,1,0,0)" xlink:href="#linear-gradient-money-jar-54"/><linearGradient id="linear-gradient-26-money-jar-54" x1="389.84" y1="296.81" x2="361.83" y2="390.64" gradientTransform="translate(723.03 -20.82) rotate(89.18)" xlink:href="#linear-gradient-money-jar-54"/><linearGradient id="linear-gradient-27-money-jar-54" x1="358.53" y1="355.87" x2="386.54" y2="355.87" gradientTransform="matrix(1,0,0,1,0,0)" xlink:href="#linear-gradient-money-jar-54"/><linearGradient id="linear-gradient-28-money-jar-54" x1="400.23" y1="387.96" x2="444.21" y2="387.96" gradientTransform="translate(805.94 -38.12) rotate(89.43)" xlink:href="#linear-gradient-money-jar-54"/><linearGradient id="linear-gradient-29-money-jar-54" x1="412.1" y1="389.08" x2="436.56" y2="389.08" gradientTransform="matrix(1,0,0,1,0,0)" xlink:href="#linear-gradient-money-jar-54"/><linearGradient id="linear-gradient-30-money-jar-54" x1="404.24" y1="382.47" x2="448.22" y2="382.47" gradientTransform="translate(802.56 -49.19) rotate(89.18)" xlink:href="#linear-gradient-money-jar-54"/><linearGradient id="linear-gradient-31-money-jar-54" x1="414.39" y1="382.09" x2="438.82" y2="382.09" gradientTransform="matrix(1,0,0,1,0,0)" xlink:href="#linear-gradient-money-jar-54"/><linearGradient id="linear-gradient-32-money-jar-54" x1="444.7" y1="313.19" x2="416.68" y2="407.02" gradientTransform="translate(795.14 -56.51) rotate(89.18)" xlink:href="#linear-gradient-money-jar-54"/><linearGradient id="linear-gradient-33-money-jar-54" x1="414.38" y1="374.67" x2="438.82" y2="374.67" gradientTransform="matrix(1,0,0,1,0,0)" xlink:href="#linear-gradient-money-jar-54"/><linearGradient id="linear-gradient-34-money-jar-54" x1="306.82" y1="376.17" x2="298.59" y2="357.93" gradientTransform="translate(115.39 -70.34) rotate(16.37)" xlink:href="#linear-gradient-money-jar-54"/><linearGradient id="linear-gradient-35-money-jar-54" x1="289" y1="365.49" x2="316.11" y2="365.49" gradientTransform="matrix(1,0,0,1,0,0)" xlink:href="#linear-gradient-money-jar-54"/><linearGradient id="linear-gradient-36-money-jar-54" x1="197.15" y1="383.22" x2="247.55" y2="383.22" gradientTransform="translate(602.35 155.41) rotate(89.18)" xlink:href="#linear-gradient-money-jar-54"/><linearGradient id="linear-gradient-37-money-jar-54" x1="208.81" y1="382.78" x2="236.79" y2="382.78" gradientTransform="matrix(1,0,0,1,0,0)" xlink:href="#linear-gradient-money-jar-54"/><linearGradient id="linear-gradient-38-money-jar-54" x1="317.84" y1="352.6" x2="307.19" y2="331.75" gradientTransform="translate(166.09 -97.47) rotate(23.94)" xlink:href="#linear-gradient-money-jar-54"/><linearGradient id="linear-gradient-39-money-jar-54" x1="300.22" y1="342.5" x2="326.17" y2="342.5" gradientTransform="matrix(1,0,0,1,0,0)" xlink:href="#linear-gradient-money-jar-54"/><linearGradient id="linear-gradient-40-money-jar-54" x1="171.65" y1="340.43" x2="183.92" y2="326.96" gradientTransform="translate(306.46 -22.51) rotate(48)" xlink:href="#linear-gradient-money-jar-54"/><linearGradient id="linear-gradient-41-money-jar-54" x1="168.41" y1="332.98" x2="189.72" y2="332.98" gradientTransform="matrix(1,0,0,1,0,0)" xlink:href="#linear-gradient-money-jar-54"/><linearGradient id="linear-gradient-42-money-jar-54" x1="215.72" y1="349.69" x2="265.96" y2="349.69" gradientTransform="translate(33.14 -20.64) rotate(5.27)" xlink:href="#linear-gradient-money-jar-54"/><linearGradient id="linear-gradient-43-money-jar-54" x1="227.27" y1="349.4" x2="255.23" y2="349.4" gradientTransform="matrix(1,0,0,1,0,0)" xlink:href="#linear-gradient-money-jar-54"/><linearGradient id="linear-gradient-44-money-jar-54" x1="176.11" y1="374.72" x2="198.27" y2="351.91" gradientTransform="translate(370.52 -2.43) rotate(53.94)" xlink:href="#linear-gradient-money-jar-54"/><linearGradient id="linear-gradient-45-money-jar-54" x1="176.6" y1="362.86" x2="199.68" y2="362.86" gradientTransform="matrix(1,0,0,1,0,0)" xlink:href="#linear-gradient-money-jar-54"/><linearGradient id="linear-gradient-46-money-jar-54" x1="185.92" y1="351.77" x2="231.31" y2="351.77" gradientTransform="translate(418.21 .58) rotate(61.5)" xlink:href="#linear-gradient-money-jar-54"/><linearGradient id="linear-gradient-47-money-jar-54" x1="196.68" y1="351.69" x2="221.65" y2="351.69" gradientTransform="matrix(1,0,0,1,0,0)" xlink:href="#linear-gradient-money-jar-54"/><linearGradient id="linear-gradient-48-money-jar-54" x1="293.16" y1="369.13" x2="228.87" y2="335.69" gradientTransform="matrix(1,0,0,1,0,0)" xlink:href="#linear-gradient-money-jar-54"/><linearGradient id="linear-gradient-49-money-jar-54" x1="259.41" y1="354.58" x2="271.1" y2="354.58" gradientTransform="matrix(1,0,0,1,0,0)" xlink:href="#linear-gradient-money-jar-54"/><linearGradient id="linear-gradient-50-money-jar-54" x1="200.69" y1="314.43" x2="223.82" y2="399.46" gradientTransform="matrix(1,0,0,1,0,0)" xlink:href="#linear-gradient-money-jar-54"/><linearGradient id="linear-gradient-51-money-jar-54" x1="205.57" y1="356.14" x2="217.25" y2="356.14" gradientTransform="matrix(1,0,0,1,0,0)" xlink:href="#linear-gradient-money-jar-54"/><linearGradient id="linear-gradient-52-money-jar-54" x1="254.12" y1="399.49" x2="226.1" y2="358.93" gradientTransform="matrix(1,0,0,1,0,0)" xlink:href="#linear-gradient-money-jar-54"/><linearGradient id="linear-gradient-53-money-jar-54" x1="231.42" y1="379.75" x2="249.24" y2="379.75" gradientTransform="matrix(1,0,0,1,0,0)" xlink:href="#linear-gradient-money-jar-54"/></defs><path id="background_money-jar-54" class="cls-54_money-jar-54 targetColor" d="M218.15,67.72c-23.28,1.43-46.88,4.58-68.09,14.34-18.96,8.71-35.29,22.35-49.81,37.34-13.32,13.75-25.51,29.07-32.47,46.91-5.59,14.49-7.57,30.17-12.83,44.84-9.58,26.58-29.73,48.95-35.64,76.56-1.95,9.87-2.45,19.97-1.5,29.99,4.53,57.2,43.82,110.22,97.21,131.19,24.52,9.63,51.13,12.83,77.46,13.18,32.65.44,65.2-3.35,97.63-7.14,54.83-6.42,111.3-13.33,159.42-40.38,6.98-3.93,13.83-8.32,19.25-14.2,7.68-8.25,12.21-18.96,15.17-29.84,7.09-26.32,5.81-54.19-3.67-79.74-6.77-18.11-17.69-35.2-19.07-54.48-1.47-20.45,8.01-39.86,13.41-59.64,4.69-17.2,5.56-39.93-5.62-55.14-7.98-10.86-23.49-14.6-35.44-19.3-43.89-17.3-89.96-28.4-136.91-33-26.09-2.56-52.34-3.06-78.51-1.48Z" style="fill: rgb(26, 143, 227);"/><g id="coin_bottle_money-jar-54"><ellipse class="cls-1_money-jar-54" cx="247.22" cy="405.04" rx="93.62" ry="14.02"/><path class="cls-55_money-jar-54 targetColor" d="M251.03,208.17h-8.7c-54.17,0-98.08,43.91-98.08,98.08h0v8.7c0,54.17,43.91,98.08,98.08,98.08h8.7c54.17,0,98.08-43.91,98.08-98.08v-8.7c0-54.17-43.91-98.08-98.08-98.08h0ZM343.45,313.99c0,50.95-41.29,92.25-92.24,92.25h-8.17c-50.95,0-92.25-41.29-92.25-92.24v-8.2c0-50.94,41.3-92.23,92.25-92.23h8.17c50.94,0,92.24,41.29,92.25,92.23v8.19Z" style="fill: rgb(26, 143, 227);"/><path class="cls-54_money-jar-54 targetColor" d="M343.45,305.8v8.19c0,2.81-.11,5.6-.37,8.32-4.31,47.53-44.15,83.93-91.88,83.93h-8.16c-47.72-.01-87.55-36.41-91.85-83.93-.26-2.75-.37-5.5-.37-8.32v-8.19c0-50.93,41.29-92.22,92.22-92.23h8.16c50.94,0,92.24,41.29,92.25,92.23Z" style="fill: rgb(26, 143, 227);"/><path class="cls-54_money-jar-54 targetColor" d="M343.08,322.31c-4.31,47.53-44.15,83.93-91.88,83.93h-8.16c-47.72-.01-87.55-36.41-91.85-83.93,4.3-47.54,44.16-83.94,91.89-83.92h8.16c47.71,0,87.54,36.4,91.84,83.92Z" style="fill: rgb(26, 143, 227);"/><circle class="cls-55_money-jar-54 targetColor" cx="247.02" cy="325.36" r="23.11" style="fill: rgb(26, 143, 227);"/><circle class="cls-47_money-jar-54" cx="244.76" cy="324.12" r="23.11"/><circle class="cls-55_money-jar-54 targetColor" cx="244.76" cy="324.12" r="19.69" style="fill: rgb(26, 143, 227);"/><path class="cls-48_money-jar-54" d="M237.2,334.12l1.52-2.75c-1.48-.82-2.7-2.04-3.52-3.51l1.66-1.47c.76,1.4,1.9,2.56,3.3,3.34,1.94,1.07,3.87.67,4.73-.92.86-1.59.27-3.02-1.3-4.96-2.19-2.63-3.23-4.84-1.92-7.21s3.81-3.12,6.56-2.14l1.52-2.75,1.7.92-1.47,2.65c1.24.7,2.29,1.71,3.03,2.92l-1.68,1.43c-.7-1.2-1.71-2.18-2.93-2.83-2.11-1.15-3.6-.34-4.2.76-.79,1.42-.16,2.69,1.68,4.99,2.19,2.7,2.83,4.9,1.48,7.33-1.18,2.16-3.8,3.36-6.88,2.27l-1.56,2.85-1.73-.93Z"/><circle class="cls-55_money-jar-54 targetColor" cx="207.03" cy="334.53" r="23.11" style="fill: rgb(26, 143, 227);"/><circle class="cls-46_money-jar-54" cx="205.14" cy="332.79" r="23.11"/><circle class="cls-55_money-jar-54 targetColor" cx="205.14" cy="332.79" r="19.69" style="fill: rgb(26, 143, 227);"/><path class="cls-52_money-jar-54" d="M195.42,340.7l2.14-2.32c-1.24-1.15-2.14-2.62-2.59-4.24l1.96-1.04c.4,1.55,1.23,2.94,2.41,4.02,1.63,1.5,3.6,1.58,4.81.26s.98-2.87-.09-5.12c-1.5-3.07-1.98-5.5-.15-7.47,1.83-1.97,4.45-2.11,6.88-.51l2.13-2.33,1.43,1.31-2.05,2.24c1.05.97,1.82,2.19,2.25,3.55l-1.94.99c-.41-1.32-1.16-2.51-2.19-3.44-1.77-1.63-3.41-1.18-4.25-.27-1.1,1.2-.8,2.58.45,5.24,1.48,3.14,1.58,5.44-.3,7.49-1.67,1.83-4.49,2.36-7.22.58l-2.2,2.39-1.47-1.33Z"/><circle class="cls-55_money-jar-54 targetColor" cx="287.69" cy="333.04" r="23.11" style="fill: rgb(26, 143, 227);"/><circle class="cls-53_money-jar-54" cx="285.26" cy="333.89" r="23.11"/><circle class="cls-55_money-jar-54 targetColor" cx="285.26" cy="333.89" r="19.69" style="fill: rgb(26, 143, 227);"/><path class="cls-51_money-jar-54" d="M287.63,346.19l-1.04-2.98c-1.6.55-3.32.64-4.97.27v-2.22c1.55.38,3.18.31,4.69-.21,2.09-.73,3.09-2.43,2.5-4.12-.59-1.69-2.06-2.23-4.58-2.35-3.42-.14-5.75-.84-6.65-3.42s.25-4.91,2.8-6.3l-1.04-2.98,1.83-.63,1,2.86c1.35-.46,2.8-.56,4.2-.3l-.06,2.2c-1.36-.28-2.77-.18-4.07.29-2.26.79-2.65,2.45-2.24,3.67.53,1.54,1.89,1.92,4.82,2.1,3.47.17,5.5,1.18,6.42,3.8.82,2.33-.05,5.08-2.91,6.64l1.07,3.07-1.79.6Z"/><path class="cls-55_money-jar-54 targetColor" d="M294.8,219.39c0,8.38-24.92,15.2-55.65,15.2s-55.67-6.82-55.67-15.2c0-1.83-1.39-12.68.53-15.33-.35.65-.53,1.37-.53,2.11,0,8.41,24.92,15.21,55.67,15.21s55-6.63,55.62-14.89c.68,4.5.03,11.32.03,12.91Z" style="fill: rgb(26, 143, 227);"/><path class="cls-49_money-jar-54" d="M294.8,219.39c0,8.38-24.92,15.2-55.65,15.2s-55.67-6.82-55.67-15.2c0-1.83-1.39-12.68.53-15.33-.35.65-.53,1.37-.53,2.11,0,8.41,24.92,15.21,55.67,15.21s55-6.63,55.62-14.89c.68,4.5.03,11.32.03,12.91Z"/><path class="cls-55_money-jar-54 targetColor" d="M294.77,206.47c-.6,8.25-25.27,14.89-55.62,14.89s-55.67-6.79-55.67-15.21c0-.74.18-1.46.53-2.11h0c3.85-7.42,27.06-13.07,55.18-13.07,26.49,0,48.65,5.06,54.23,11.85.22.19.4.42.54.68.43.93.71,1.94.82,2.96Z" style="fill: rgb(26, 143, 227);"/><path class="cls-55_money-jar-54 targetColor" d="M294.8,206.16c.01.1.01.21,0,.31-.11-1.04-.4-2.05-.85-2.99.56.78.86,1.72.85,2.68Z" style="fill: rgb(26, 143, 227);"/><rect class="cls-50_money-jar-54" x="217.61" y="202.84" width="42.14" height="3.46"/><circle class="cls-55_money-jar-54 targetColor" cx="226.32" cy="167.97" r="25.21" style="fill: rgb(26, 143, 227);"/><circle class="cls-55_money-jar-54 targetColor" cx="223.31" cy="168.22" r="25.21" style="fill: rgb(26, 143, 227);"/><circle class="cls-18_money-jar-54" cx="223.52" cy="167.97" r="25.21"/><circle class="cls-55_money-jar-54 targetColor" cx="223.52" cy="167.97" r="21.48" style="fill: rgb(26, 143, 227);"/><path class="cls-15_money-jar-54" d="M221.55,181.5v-3.45c-1.84,0-3.65-.52-5.22-1.49l.82-2.28c1.46.95,3.17,1.45,4.91,1.46,2.42,0,4.05-1.39,4.05-3.34s-1.33-3.03-3.85-4.06c-3.47-1.36-5.63-2.92-5.63-5.89s2.02-4.98,5.15-5.5v-3.44h2.11v3.31c1.56,0,3.09.42,4.44,1.19l-.85,2.25c-1.3-.77-2.79-1.17-4.3-1.15-2.62,0-3.61,1.57-3.61,2.92,0,1.78,1.26,2.67,4.23,3.89,3.51,1.44,5.29,3.21,5.29,6.24,0,2.69-1.83,5.22-5.39,5.79v3.55h-2.14Z"/><circle class="cls-55_money-jar-54 targetColor" cx="216.38" cy="118.46" r="23.11" style="fill: rgb(26, 143, 227);"/><circle class="cls-55_money-jar-54 targetColor" cx="213.82" cy="118.46" r="23.11" style="fill: rgb(26, 143, 227);"/><circle class="cls-16_money-jar-54" cx="213.82" cy="118.46" r="23.11"/><circle class="cls-55_money-jar-54 targetColor" cx="213.82" cy="118.46" r="19.69" style="fill: rgb(26, 143, 227);"/><path class="cls-17_money-jar-54" d="M212.01,130.86v-3.13c-1.69,0-3.35-.48-4.78-1.37l.75-2.09c1.34.86,2.9,1.33,4.5,1.34,2.22,0,3.72-1.28,3.72-3.06s-1.22-2.75-3.54-3.72c-3.18-1.25-5.15-2.69-5.15-5.4s1.83-4.58,4.72-5.03v-3.18h1.93v3.02c1.43.01,2.82.39,4.06,1.1l-.78,2.06c-1.18-.71-2.54-1.09-3.92-1.08-2.41,0-3.32,1.44-3.32,2.69,0,1.62,1.15,2.44,3.88,3.56,3.22,1.32,4.84,2.94,4.84,5.72,0,2.47-1.71,4.78-4.93,5.32v3.24l-1.98.02Z"/><circle class="cls-55_money-jar-54 targetColor" cx="175.97" cy="92.85" r="23.11" style="fill: rgb(26, 143, 227);"/><circle class="cls-55_money-jar-54 targetColor" cx="173.41" cy="92.85" r="23.11" style="fill: rgb(26, 143, 227);"/><circle class="cls-26_money-jar-54" cx="173.41" cy="92.85" r="23.11"/><circle class="cls-55_money-jar-54 targetColor" cx="173.41" cy="92.85" r="19.69" style="fill: rgb(26, 143, 227);"/><path class="cls-22_money-jar-54" d="M171.6,105.25v-3.18c-1.69,0-3.34-.48-4.78-1.37l.74-2.09c1.34.87,2.9,1.33,4.5,1.34,2.22,0,3.72-1.27,3.72-3.06s-1.22-2.75-3.53-3.67c-3.19-1.26-5.16-2.69-5.16-5.41s1.83-4.58,4.72-5.03v-3.17h1.93v3.03c1.41.02,2.8.4,4.02,1.1l-.78,2.06c-1.19-.71-2.55-1.08-3.93-1.06-2.41,0-3.32,1.44-3.32,2.69,0,1.62,1.15,2.44,3.88,3.57,3.22,1.31,4.84,2.93,4.84,5.72,0,2.47-1.71,4.78-4.93,5.31v3.24h-1.93Z"/><path class="cls-55_money-jar-54 targetColor" d="M277.28,401.06c-13.92-.2-25.14-4.97-25.06-10.64,0-.63-.48-4.18-.2-4.78,2.19-4.77,13.17-5.33,25.55-5.15,12.17.17,22.39,0,24.67,4.7.33.67.38,5.22.38,5.94-.07,5.68-11.43,10.12-25.34,9.93Z" style="fill: rgb(26, 143, 227);"/><ellipse class="cls-20_money-jar-54" cx="277.24" cy="386.03" rx="10.28" ry="25.21" transform="translate(-112.72 657.72) rotate(-89.18)"/><ellipse class="cls-55_money-jar-54 targetColor" cx="277.24" cy="386.03" rx="8.76" ry="21.48" transform="translate(-112.72 657.72) rotate(-89.18)" style="fill: rgb(26, 143, 227);"/><path class="cls-19_money-jar-54" d="M263.7,385.01l3.45.05c.13-.91.71-1.7,1.53-2.11l2.27.37c-.8.37-1.37,1.11-1.51,1.98,0,.98,1.37,1.67,3.32,1.7,1.52.12,3.01-.43,4.08-1.51,1.38-1.4,2.97-2.25,5.93-2.21s4.97.92,5.45,2.18l3.45.05v.86l-3.31-.05c-.11.75-.56,1.41-1.22,1.79l-2.25-.38c.65-.35,1.1-1,1.18-1.74,0-1.06-1.55-1.49-2.91-1.51-1.49-.09-2.94.53-3.91,1.67-1.45,1.41-3.24,2.11-6.27,2.07-2.69-.05-5.2-.84-5.76-2.28l-3.55-.05.02-.86Z"/><path class="cls-55_money-jar-54 targetColor" d="M372.09,405.06c-13.92-.19-25.14-4.96-25.06-10.64,0-.63-.48-4.17-.2-4.77,2.2-4.77,13.18-5.33,25.55-5.16,12.18.17,22.4,0,24.68,4.7.32.68.38,5.23.38,5.94-.07,5.68-11.42,10.13-25.35,9.93Z" style="fill: rgb(26, 143, 227);"/><ellipse class="cls-25_money-jar-54" cx="372.07" cy="390.03" rx="10.28" ry="25.21" transform="translate(-23.25 756.48) rotate(-89.18)"/><ellipse class="cls-55_money-jar-54 targetColor" cx="372.07" cy="390.03" rx="8.76" ry="21.48" transform="translate(-23.25 756.48) rotate(-89.18)" style="fill: rgb(26, 143, 227);"/><path class="cls-21_money-jar-54" d="M358.53,389.01l3.44.05c.14-.91.71-1.7,1.53-2.11l2.28.37c-.8.37-1.36,1.11-1.49,1.98,0,.99,1.37,1.68,3.32,1.7,1.51.11,3-.44,4.08-1.51,1.38-1.4,2.96-2.25,5.92-2.22s4.97.92,5.5,2.18h3.44v.86h-3.31c-.1.77-.55,1.45-1.22,1.83l-2.24-.38c.65-.35,1.09-1,1.18-1.73,0-1.07-1.55-1.49-2.91-1.51-1.49-.09-2.94.53-3.9,1.67-1.46,1.41-3.24,2.11-6.27,2.06-2.69,0-5.21-.83-5.77-2.28l-3.55-.05-.03-.92Z"/><path class="cls-55_money-jar-54 targetColor" d="M375.91,396.06c-13.92-.2-25.14-4.96-25.06-10.64,0-.63-.48-4.17-.2-4.77,2.19-4.78,13.17-5.33,25.55-5.16,12.18.17,22.39,0,24.68,4.7.32.68.38,5.23.37,5.94-.07,5.68-11.43,10.16-25.34,9.93Z" style="fill: rgb(26, 143, 227);"/><ellipse class="cls-28_money-jar-54" cx="375.88" cy="381.02" rx="10.28" ry="25.21" transform="translate(-10.49 751.41) rotate(-89.18)"/><ellipse class="cls-55_money-jar-54 targetColor" cx="375.88" cy="381.02" rx="8.76" ry="21.48" transform="translate(-10.49 751.41) rotate(-89.18)" style="fill: rgb(26, 143, 227);"/><path class="cls-24_money-jar-54" d="M362.33,380.01l3.44.05c.12-.92.7-1.71,1.53-2.11l2.28.37c-.8.36-1.36,1.11-1.49,1.98,0,.99,1.37,1.68,3.31,1.7,1.52.12,3.01-.44,4.08-1.52,1.38-1.39,2.97-2.25,5.93-2.21,2.96.04,4.97.92,5.5,2.18h3.44v.86h-3.31c-.1.77-.55,1.44-1.22,1.83l-2.25-.38c.65-.35,1.09-1,1.18-1.73,0-1.07-1.54-1.49-2.91-1.52-1.49-.08-2.94.54-3.91,1.68-1.45,1.41-3.23,2.11-6.26,2.06-2.69,0-5.21-.84-5.77-2.28l-3.55-.05-.03-.92Z"/><path class="cls-55_money-jar-54 targetColor" d="M369.5,387.85c-13.91-.19-25.13-4.96-25.05-10.64,0-.63-.48-4.17-.21-4.77,2.2-4.77,13.18-5.33,25.55-5.16,12.18.17,22.4,0,24.68,4.7.33.68.38,5.23.38,5.94-.08,5.68-11.43,10.12-25.35,9.93Z" style="fill: rgb(26, 143, 227);"/><ellipse class="cls-27_money-jar-54" cx="369.47" cy="372.83" rx="10.28" ry="25.21" transform="translate(-8.61 736.93) rotate(-89.18)"/><ellipse class="cls-55_money-jar-54 targetColor" cx="369.47" cy="372.83" rx="8.76" ry="21.48" transform="translate(-8.61 736.93) rotate(-89.18)" style="fill: rgb(26, 143, 227);"/><path class="cls-23_money-jar-54" d="M355.93,371.8l3.45.05c.13-.91.7-1.7,1.52-2.11l2.28.37c-.8.37-1.36,1.11-1.49,1.98,0,.99,1.37,1.68,3.32,1.7,1.52.12,3.01-.44,4.08-1.51,1.38-1.4,2.96-2.25,5.93-2.22,2.82.05,4.96.92,5.45,2.18l3.45.05v.86l-3.3-.05c-.1.77-.55,1.45-1.22,1.83l-2.25-.38c.65-.35,1.09-1,1.18-1.73,0-1.07-1.55-1.49-2.91-1.51-1.49-.09-2.94.53-3.91,1.67-1.45,1.41-3.24,2.11-6.27,2.06-2.69,0-5.21-.83-5.77-2.28l-3.54-.05v-.92Z"/><path class="cls-55_money-jar-54 targetColor" d="M372.09,379.85c-13.92-.2-25.14-4.96-25.06-10.64,0-.63-.48-4.17-.2-4.77,2.2-4.78,13.18-5.33,25.55-5.16,12.18.17,22.4,0,24.68,4.7.32.68.38,5.23.38,5.94-.07,5.68-11.42,10.13-25.35,9.93Z" style="fill: rgb(26, 143, 227);"/><ellipse class="cls-30_money-jar-54" cx="372.07" cy="364.82" rx="10.28" ry="25.21" transform="translate(1.96 731.64) rotate(-89.18)"/><ellipse class="cls-55_money-jar-54 targetColor" cx="372.07" cy="364.82" rx="8.76" ry="21.48" transform="translate(1.96 731.64) rotate(-89.18)" style="fill: rgb(26, 143, 227);"/><path class="cls-14_money-jar-54" d="M358.53,363.8l3.44.05c.14-.91.71-1.7,1.53-2.11l2.28.37c-.8.37-1.36,1.11-1.49,1.98,0,.99,1.37,1.68,3.32,1.7,1.51.11,3-.44,4.08-1.51,1.38-1.4,2.96-2.25,5.92-2.22,2.96.04,4.97.92,5.5,2.18h3.44v.88h-3.31c-.1.77-.55,1.45-1.22,1.83l-2.24-.38c.65-.35,1.09-1,1.18-1.73,0-1.07-1.55-1.49-2.91-1.51-1.49-.09-2.94.53-3.9,1.67-1.46,1.41-3.24,2.11-6.27,2.06-2.69,0-5.21-.83-5.77-2.28l-3.55-.05-.03-.93Z"/><path class="cls-55_money-jar-54 targetColor" d="M372.09,371.35c-13.92-.2-25.14-4.97-25.06-10.64,0-.63-.48-4.18-.2-4.78,2.2-4.77,13.18-5.33,25.55-5.15,12.18.17,22.4,0,24.68,4.7.32.67.38,5.22.38,5.94-.07,5.67-11.42,10.13-25.35,9.93Z" style="fill: rgb(26, 143, 227);"/><ellipse class="cls-31_money-jar-54" cx="372.08" cy="356.32" rx="10.28" ry="25.21" transform="translate(10.47 723.25) rotate(-89.18)"/><ellipse class="cls-55_money-jar-54 targetColor" cx="372.08" cy="356.32" rx="8.76" ry="21.48" transform="translate(10.47 723.25) rotate(-89.18)" style="fill: rgb(26, 143, 227);"/><path class="cls-29_money-jar-54" d="M358.53,355.3l3.44.05c.14-.91.71-1.7,1.53-2.11l2.28.37c-.8.37-1.35,1.11-1.49,1.98,0,.99,1.37,1.68,3.32,1.7,1.52.12,3.01-.44,4.08-1.51,1.38-1.4,2.96-2.25,5.92-2.21s4.97.92,5.5,2.18l3.44.05v.86l-3.31-.05c-.11.75-.56,1.41-1.22,1.79l-2.24-.38c.65-.36,1.09-1,1.18-1.74,0-1.06-1.55-1.49-2.91-1.51-1.49-.09-2.94.53-3.9,1.67-1.46,1.41-3.24,2.11-6.27,2.07-2.69,0-5.21-.84-5.77-2.28l-3.55-.05-.03-.87Z"/><path class="cls-55_money-jar-54 targetColor" d="M423.99,402.57c-12.14-.17-21.93-4.34-21.87-9.29,0-.55-.41-3.67-.17-4.16,1.92-4.16,11.49-4.66,22.29-4.5,10.63.16,19.55,0,21.54,4.11.28.59.34,4.58.33,5.18-.07,4.96-9.97,8.81-22.12,8.66Z" style="fill: rgb(26, 143, 227);"/><ellipse class="cls-13_money-jar-54" cx="422.22" cy="387.96" rx="8.97" ry="21.99" transform="translate(30.06 806.28) rotate(-89.43)"/><ellipse class="cls-55_money-jar-54 targetColor" cx="423.96" cy="389.46" rx="7.64" ry="18.74" transform="translate(28.47 807.8) rotate(-89.18)" style="fill: rgb(26, 143, 227);"/><path class="cls-4_money-jar-54" d="M412.14,388.56l3.01.05c.12-.79.61-1.47,1.33-1.83l1.99.32c-.69.33-1.18.98-1.3,1.73,0,.86,1.2,1.46,2.9,1.48,1.32.09,2.62-.39,3.56-1.32,1.34-1.39,3.24-2.1,5.17-1.92,2.47,0,4.34.77,4.77,1.9l3.01.05v.75l-2.88-.05c-.1.66-.49,1.23-1.06,1.57l-1.96-.34c.57-.31.94-.88,1.02-1.52,0-.92-1.36-1.3-2.54-1.32-1.3-.08-2.57.46-3.41,1.46-1.27,1.23-2.82,1.83-5.5,1.83-2.35,0-4.58-.72-5.03-1.99h-3.09l.04-.84Z"/><path class="cls-55_money-jar-54 targetColor" d="M426.26,395.58c-12.14-.17-21.93-4.33-21.86-9.29,0-.55-.41-3.67-.17-4.16,1.92-4.16,11.49-4.65,22.29-4.5,10.62.16,19.54,0,21.53,4.11.29.59.34,4.58.33,5.18-.06,4.96-9.97,8.84-22.12,8.66Z" style="fill: rgb(26, 143, 227);"/><ellipse class="cls-6_money-jar-54" cx="426.23" cy="382.47" rx="8.97" ry="21.99" transform="translate(37.7 803.18) rotate(-89.18)"/><ellipse class="cls-55_money-jar-54 targetColor" cx="426.23" cy="382.47" rx="7.64" ry="18.74" transform="translate(37.7 803.18) rotate(-89.18)" style="fill: rgb(26, 143, 227);"/><path class="cls-7_money-jar-54" d="M414.41,381.63h3c.12-.79.62-1.48,1.34-1.83l1.99.32c-.7.32-1.19.97-1.3,1.72,0,.86,1.2,1.47,2.89,1.48,1.32.11,2.63-.38,3.57-1.32,1.34-1.4,3.24-2.11,5.17-1.92,2.47,0,4.34.78,4.77,1.9l3,.05v.75l-2.89-.05c-.09.66-.48,1.24-1.06,1.57l-1.95-.33c.57-.31.95-.88,1.03-1.52,0-.92-1.35-1.3-2.54-1.32-1.29-.07-2.54.45-3.4,1.42-1.26,1.23-2.82,1.83-5.5,1.83-2.36,0-4.58-.73-5.03-1.99l-3.09-.05.03-.71Z"/><path class="cls-55_money-jar-54 targetColor" d="M426.26,388.16c-12.14-.17-21.93-4.33-21.86-9.29,0-.55-.41-3.67-.17-4.16,1.92-4.16,11.49-4.65,22.29-4.5,10.62.16,19.54,0,21.53,4.11.29.59.34,4.58.33,5.18-.06,4.96-9.97,8.84-22.12,8.66Z" style="fill: rgb(26, 143, 227);"/><ellipse class="cls-5_money-jar-54" cx="426.23" cy="375.05" rx="8.97" ry="21.99" transform="translate(45.12 795.87) rotate(-89.18)"/><ellipse class="cls-55_money-jar-54 targetColor" cx="426.23" cy="375.05" rx="7.64" ry="18.74" transform="translate(45.12 795.87) rotate(-89.18)" style="fill: rgb(26, 143, 227);"/><path class="cls-3_money-jar-54" d="M414.41,374.15l3,.05c.12-.79.62-1.48,1.34-1.83l1.99.31c-.7.32-1.19.97-1.3,1.73,0,.86,1.2,1.47,2.89,1.48,1.32.11,2.63-.38,3.57-1.32,1.34-1.4,3.24-2.11,5.17-1.92,2.47,0,4.34.78,4.77,1.9l3,.05v.75l-2.89-.05c-.09.66-.48,1.24-1.06,1.57l-1.95-.33c.57-.31.95-.88,1.03-1.52,0-.92-1.35-1.3-2.54-1.32-1.3-.07-2.56.47-3.41,1.46-1.26,1.23-2.82,1.83-5.5,1.83-2.36,0-4.58-.73-5.03-1.99l-3.09-.05.04-.8Z"/><path class="cls-55_money-jar-54 targetColor" d="M306.7,380.3c-13.35,3.92-25.48,2.69-27.09-2.75-.17-.6-1.69-3.85-1.59-4.49.69-5.21,11-8.99,22.91-12.48,11.69-3.43,21.39-6.64,24.97-2.8.51.54,1.92,4.89,2.12,5.56,1.57,5.45-7.97,13.02-21.32,16.96Z" style="fill: rgb(26, 143, 227);"/><ellipse class="cls-10_money-jar-54" cx="302.2" cy="365.94" rx="25.21" ry="10.28" transform="translate(-90.89 100.01) rotate(-16.37)"/><ellipse class="cls-55_money-jar-54 targetColor" cx="301.78" cy="366.65" rx="21.48" ry="8.76" transform="translate(-90.59 99.16) rotate(-16.26)" style="fill: rgb(26, 143, 227);"/><path class="cls-12_money-jar-54" d="M289,368.98l3.3-.97c-.15-.91.17-1.84.84-2.47l2.28-.32c-.65.59-.97,1.46-.84,2.33.28.92,1.83,1.2,3.67.65,1.48-.34,2.74-1.31,3.45-2.66.92-1.74,2.16-3.02,5.01-3.86,2.75-.8,5-.61,5.86.47l3.3-.97.25.82-3.17.92c.12.75-.12,1.52-.64,2.07l-2.25.3c.53-.52.77-1.27.64-2-.3-1.03-1.92-.97-3.23-.59-1.45.36-2.65,1.38-3.24,2.75-.97,1.78-2.47,2.97-5.38,3.82-2.58.76-5.22.73-6.18-.48l-3.4,1-.27-.82Z"/><path class="cls-55_money-jar-54 targetColor" d="M222.39,398.25c-13.92-.2-25.14-4.97-25.06-10.64,0-.63-.48-4.18-.2-4.77,2.2-4.78,13.18-5.33,25.55-5.16,12.18.17,22.4,0,24.68,4.7.32.67.38,5.23.38,5.94-.08,5.68-11.43,10.12-25.35,9.93Z" style="fill: rgb(26, 143, 227);"/><ellipse class="cls-8_money-jar-54" cx="222.35" cy="383.22" rx="10.28" ry="25.21" transform="translate(-164.01 600.06) rotate(-89.18)"/><ellipse class="cls-55_money-jar-54 targetColor" cx="222.35" cy="383.22" rx="8.76" ry="21.48" transform="translate(-164.01 600.06) rotate(-89.18)" style="fill: rgb(26, 143, 227);"/><path class="cls-11_money-jar-54" d="M208.81,382.2l3.44.05c.13-.91.7-1.7,1.53-2.1l2.28.37c-.8.37-1.36,1.11-1.49,1.98,0,.98,1.37,1.67,3.32,1.7,1.52.12,3.01-.43,4.08-1.51,1.38-1.39,2.96-2.25,5.93-2.21,2.82,0,4.96.92,5.45,2.18l3.44.05v.86l-3.3-.05c-.11.75-.56,1.41-1.22,1.79l-2.25-.38c.65-.35,1.09-1,1.18-1.73,0-1.07-1.55-1.5-2.91-1.52-1.49-.08-2.93.53-3.9,1.67-1.46,1.41-3.24,2.12-6.27,2.07-2.69,0-5.21-.84-5.77-2.28l-3.54-.05v-.88Z"/><path class="cls-55_money-jar-54 targetColor" d="M319.26,356.63c-12.72,5.66-24.91,6.02-27.21.83-.26-.58-2.18-3.59-2.18-4.24,0-5.25,9.73-10.37,21.08-15.39,11.14-4.94,20.34-9.4,24.38-6.06.59.47,2.55,4.58,2.83,5.23,2.26,5.21-6.18,13.98-18.9,19.62Z" style="fill: rgb(26, 143, 227);"/><ellipse class="cls-2_money-jar-54" cx="312.92" cy="342.97" rx="25.21" ry="10.28" transform="translate(-112.25 156.48) rotate(-23.94)"/><ellipse class="cls-55_money-jar-54 targetColor" cx="312.92" cy="342.97" rx="21.48" ry="8.76" transform="translate(-112.25 156.48) rotate(-23.94)" style="fill: rgb(26, 143, 227);"/><path class="cls-9_money-jar-54" d="M300.22,347.72l3.14-1.4c-.27-.88-.08-1.84.5-2.55l2.23-.62c-.57.67-.77,1.58-.53,2.42.4.92,1.95.92,3.73.16,1.42-.53,2.54-1.66,3.06-3.09.68-1.83,1.75-3.28,4.46-4.48,2.71-1.2,4.88-1.27,5.87-.31l3.14-1.39.35.79-3.02,1.34c.21.73.08,1.52-.36,2.14l-2.2.6c.45-.59.58-1.37.35-2.07-.43-.98-2.03-.71-3.27-.16-1.39.54-2.45,1.71-2.85,3.15-.73,1.89-2.06,3.26-4.83,4.5-2.47,1.09-5.08,1.41-6.19.34l-3.21,1.48-.38-.83Z"/><path class="cls-55_money-jar-54 targetColor" d="M168.61,344.28c-10.34-9.31-15.65-20.28-11.85-24.51.42-.47,2.39-3.46,2.99-3.72,4.79-2.14,13.43,4.67,22.63,12.95,9.05,8.15,16.87,14.73,15.48,19.79-.2.71-3.15,4.19-3.67,4.72-3.74,4.22-15.21.08-25.58-9.23Z" style="fill: rgb(26, 143, 227);"/><ellipse class="cls-40_money-jar-54" cx="178.51" cy="332.9" rx="10.28" ry="25.21" transform="translate(-188.33 242.8) rotate(-48)"/><ellipse class="cls-55_money-jar-54 targetColor" cx="178.51" cy="332.9" rx="8.76" ry="21.48" transform="translate(-188.33 242.8) rotate(-48)" style="fill: rgb(26, 143, 227);"/><path class="cls-41_money-jar-54" d="M168.99,323.26l2.56,2.3c.7-.59,1.65-.81,2.54-.58l1.48,1.78c-.84-.25-1.76-.06-2.43.51-.66.73-.06,2.16,1.37,3.46,1.07,1.08,2.55,1.64,4.07,1.54,1.96-.14,3.67.26,5.91,2.25s3.15,3.94,2.68,5.23l2.56,2.3-.58.64-2.46-2.21c-.58.49-1.35.69-2.1.54l-1.44-1.76c.72.16,1.48-.04,2.03-.53.72-.8-.17-2.14-1.19-3.05-1.06-1.05-2.56-1.54-4.04-1.32-2.02.1-3.82-.54-6.08-2.58-2-1.83-3.36-4.06-2.83-5.5l-2.63-2.41.58-.62Z"/><path class="cls-55_money-jar-54 targetColor" d="M242.48,364.66c-13.87,1.27-25.53-2.27-26.05-7.93-.05-.62-.92-4.1-.71-4.72,1.68-4.98,12.54-6.7,24.87-7.84,12.13-1.12,22.27-2.39,25.04,2.06.39.63.92,5.16,1,5.87.52,5.69-10.29,11.27-24.15,12.56Z" style="fill: rgb(26, 143, 227);"/><ellipse class="cls-38_money-jar-54" cx="240.84" cy="349.69" rx="25.21" ry="10.28" transform="translate(-31.1 23.6) rotate(-5.27)"/><ellipse class="cls-55_money-jar-54 targetColor" cx="240.84" cy="349.69" rx="21.48" ry="8.76" transform="translate(-31.1 23.6) rotate(-5.27)" style="fill: rgb(26, 143, 227);"/><path class="cls-39_money-jar-54" d="M227.27,350.15l3.43-.32c.04-.92.53-1.76,1.3-2.25l2.3.13c-.75.45-1.23,1.25-1.27,2.13.09.98,1.55,1.52,3.48,1.34,1.52-.05,2.94-.75,3.9-1.93,1.23-1.54,2.7-2.56,5.66-2.82s5.03.36,5.66,1.59l3.43-.32.07.86-3.29.3c-.03.76-.41,1.46-1.02,1.91l-2.27-.14c.6-.42.97-1.1.99-1.83-.1-1.06-1.7-1.32-3.05-1.2-1.48.09-2.83.86-3.67,2.08-1.29,1.56-3,2.44-6.01,2.75-2.69.25-5.26-.28-5.98-1.65l-3.53.32-.13-.93Z"/><path class="cls-55_money-jar-54 targetColor" d="M179.01,375.21c-11.26-8.19-17.66-18.56-14.33-23.14.38-.51,2.03-3.67,2.58-4.01,4.58-2.63,13.84,3.24,23.83,10.53,9.84,7.18,18.33,12.91,17.42,18.08-.12.74-2.75,4.5-3.12,5.07-3.3,4.56-15.13,1.63-26.39-6.53Z" style="fill: rgb(26, 143, 227);"/><ellipse class="cls-34_money-jar-54" cx="187.65" cy="362.84" rx="10.28" ry="25.21" transform="translate(-216.13 300.96) rotate(-53.94)"/><ellipse class="cls-55_money-jar-54 targetColor" cx="187.65" cy="362.84" rx="8.76" ry="21.48" transform="translate(-216.13 300.96) rotate(-53.94)" style="fill: rgb(26, 143, 227);"/><path class="cls-32_money-jar-54" d="M177.18,354.24l2.75,2.03c.64-.66,1.56-.98,2.47-.84l1.65,1.62c-.86-.16-1.75.12-2.36.75-.58.8.16,2.16,1.73,3.31,1.17.97,2.7,1.38,4.2,1.11,1.94-.34,3.72-.13,6.12,1.62,2.4,1.75,3.54,3.59,3.2,4.92l2.75,2.03-.5.7-2.67-1.94c-.53.55-1.28.83-2.03.76l-1.61-1.6c.74.08,1.47-.19,1.97-.73.63-.87-.4-2.12-1.5-2.91-1.16-.94-2.7-1.28-4.15-.92-2.01.31-3.87-.15-6.32-1.92-2.18-1.59-3.77-3.67-3.39-5.19l-2.87-2.09.58-.69Z"/><path class="cls-55_money-jar-54 targetColor" d="M201.67,365.13c-12.23-6.65-19.95-16.07-17.24-21.08.3-.55,1.51-3.91,2.03-4.32,4.16-3.2,14.14,1.4,25.02,7.33,10.71,5.81,19.84,10.38,19.67,15.63,0,.75-2.08,4.81-2.42,5.44-2.71,4.96-14.83,3.62-27.07-3Z" style="fill: rgb(26, 143, 227);"/><ellipse class="cls-33_money-jar-54" cx="208.62" cy="351.77" rx="10.28" ry="25.21" transform="translate(-200.07 367.25) rotate(-61.5)"/><ellipse class="cls-55_money-jar-54 targetColor" cx="208.62" cy="351.77" rx="8.76" ry="21.48" transform="translate(-200.07 367.25) rotate(-61.5)" style="fill: rgb(26, 143, 227);"/><path class="cls-37_money-jar-54" d="M197.11,344.59l3.02,1.64c.54-.75,1.41-1.19,2.34-1.15l1.83,1.38c-.87-.04-1.71.35-2.24,1.05-.48.92.43,2.13,2.14,3.05,1.28.81,2.86,1.01,4.31.55,1.83-.6,3.67-.61,6.28.8,2.61,1.41,3.99,3.1,3.82,4.46l3.02,1.65-.41.75-2.91-1.58c-.44.62-1.15.99-1.91,1.02l-1.83-1.37c.73-.02,1.42-.38,1.83-.99.51-.92-.67-2.04-1.83-2.69-1.28-.77-2.85-.89-4.23-.34-1.94.58-3.85.37-6.51-1.08-2.37-1.28-4.23-3.15-4.05-4.69l-3.12-1.69.43-.77Z"/><circle class="cls-55_money-jar-54 targetColor" cx="268.57" cy="355" r="23.11" style="fill: rgb(26, 143, 227);"/><circle class="cls-35_money-jar-54" cx="266" cy="355" r="23.11"/><circle class="cls-55_money-jar-54 targetColor" cx="266" cy="355" r="19.69" style="fill: rgb(26, 143, 227);"/><path class="cls-36_money-jar-54" d="M264.19,367.4v-3.19c-1.69,0-3.35-.48-4.78-1.37l.75-2.1c1.34.87,2.9,1.34,4.5,1.35,2.22,0,3.72-1.28,3.72-3.06s-1.22-2.75-3.54-3.72c-3.18-1.25-5.15-2.69-5.15-5.4s1.83-4.58,4.72-5.03v-3.12h1.93v3.02c1.43.01,2.82.39,4.06,1.1l-.78,2.06c-1.19-.71-2.55-1.08-3.93-1.06-2.41,0-3.32,1.44-3.32,2.69,0,1.62,1.15,2.44,3.88,3.56,3.22,1.32,4.84,2.94,4.84,5.72,0,2.47-1.71,4.78-4.93,5.32v3.24h-1.97Z"/><circle class="cls-55_money-jar-54 targetColor" cx="214.72" cy="356.55" r="23.11" style="fill: rgb(26, 143, 227);"/><circle class="cls-45_money-jar-54" cx="212.15" cy="356.55" r="23.11"/><circle class="cls-55_money-jar-54 targetColor" cx="212.15" cy="356.55" r="19.69" style="fill: rgb(26, 143, 227);"/><path class="cls-43_money-jar-54" d="M210.34,368.96v-3.16c-1.69,0-3.34-.48-4.78-1.37l.74-2.09c1.34.87,2.9,1.34,4.5,1.35,2.22,0,3.72-1.28,3.72-3.06s-1.22-2.75-3.53-3.72c-3.19-1.25-5.16-2.69-5.16-5.41s1.83-4.58,4.72-5.02v-3.16h1.93v3.03c1.42,0,2.82.38,4.06,1.09l-.78,2.06c-1.19-.71-2.55-1.08-3.93-1.06-2.41,0-3.32,1.44-3.32,2.69,0,1.63,1.16,2.44,3.88,3.57,3.22,1.31,4.84,2.93,4.84,5.72,0,2.47-1.71,4.78-4.93,5.31v3.25h-1.97Z"/><circle class="cls-55_money-jar-54 targetColor" cx="243.23" cy="381.71" r="23.11" style="fill: rgb(26, 143, 227);"/><circle class="cls-44_money-jar-54" cx="240.99" cy="380.48" r="23.11"/><circle class="cls-55_money-jar-54 targetColor" cx="240.99" cy="380.48" r="19.69" style="fill: rgb(26, 143, 227);"/><path class="cls-42_money-jar-54" d="M233.42,390.48l1.52-2.75c-1.48-.82-2.7-2.03-3.53-3.5l1.67-1.48c.75,1.41,1.9,2.57,3.29,3.35,1.95,1.07,3.88.67,4.74-.92.86-1.59.27-3.02-1.3-4.96-2.19-2.63-3.23-4.84-1.92-7.22,1.31-2.38,3.81-3.11,6.56-2.14l1.51-2.75,1.7.92-1.46,2.66c1.24.7,2.29,1.7,3.03,2.91l-1.68,1.43c-.7-1.19-1.72-2.17-2.94-2.82-2.11-1.16-3.59-.34-4.19.75-.79,1.43-.16,2.69,1.68,4.99,2.18,2.7,2.82,4.91,1.48,7.33-1.19,2.16-3.8,3.35-6.88,2.27l-1.57,2.84-1.72-.92Z"/></g></svg>